<svg viewBox="0 0 99 16" fill="none" xmlns="http://www.w3.org/2000/svg"><path d="m32.86 11.76.58-1.88h3.7l.59 1.88h2.69L37 1.04h-3.26l-3.6 10.72h2.7Zm3.7-3.78h-2.47l1.25-3.92 1.22 3.92Zm8.05 3.78V.74h-2.55v11.02h2.55Zm5.28 3.82v-4.15c.08.08.17.15.26.2l.05.04c.39.23.87.35 1.45.35a3.74 3.74 0 0 0 3.29-1.93c.36-.62.54-1.38.54-2.26 0-.89-.18-1.65-.53-2.27a3.77 3.77 0 0 0-1.38-1.43 3.49 3.49 0 0 0-1.8-.5c-.46 0-.91.13-1.33.37-.3.17-.57.42-.79.75l-.03.05-.2-.9h-2.1v11.68h2.57Zm1.35-5.9c-.24 0-.47-.04-.68-.13-.2-.1-.37-.22-.5-.38a.9.9 0 0 1-.17-.56V7.26c0-.23.06-.44.15-.62l.03-.04c.12-.2.28-.37.5-.48.2-.11.45-.17.72-.17.34 0 .63.08.87.23.24.16.43.38.56.66.14.28.2.61.2.99 0 .45-.09.8-.27 1.08-.17.27-.4.47-.65.59-.26.12-.51.18-.76.18Zm7.8-6.8c.46 0 .83-.13 1.1-.38.28-.24.41-.6.41-1.05 0-.44-.13-.8-.4-1.05-.28-.27-.65-.4-1.12-.4-.48 0-.85.13-1.12.4-.26.26-.4.61-.4 1.05 0 .46.14.8.4 1.05.27.25.64.38 1.12.38Zm1.27 8.88V3.84h-2.55v7.92h2.55Zm5.5 0v-3.4c0-.53.07-.97.2-1.31l.02-.05c.15-.37.34-.63.59-.8.24-.16.51-.25.8-.25a1 1 0 0 1 .74.3c.2.2.3.5.3.92v4.6h2.58v-4.6c0-.68-.1-1.3-.3-1.82-.21-.54-.53-.96-.96-1.26a2.8 2.8 0 0 0-1.65-.45 2.68 2.68 0 0 0-2.34 1.32l-.03.04-.25-1.1h-2.26v7.86h2.56Zm10.87.26a4 4 0 0 0 1.73-.35c.5-.24.9-.56 1.21-.96.31-.4.5-.84.59-1.33h-2.54c-.07.2-.2.36-.37.46-.18.1-.38.14-.62.14a1.2 1.2 0 0 1-.71-.2 1.24 1.24 0 0 1-.43-.58c-.1-.24-.14-.53-.14-.87v.02h4.73c.12-.57.15-1.12.07-1.65l-.01-.09a3.79 3.79 0 0 0-.6-1.51c-.3-.45-.69-.8-1.18-1.07a3.59 3.59 0 0 0-1.73-.4 3.72 3.72 0 0 0-3.27 1.93 4.4 4.4 0 0 0-.54 2.23c0 .87.18 1.62.54 2.25.36.64.83 1.12 1.41 1.47.58.34 1.2.5 1.86.5Zm1.22-4.96h-2.5c.03-.23.07-.42.14-.59l.02-.05c.11-.25.27-.44.46-.57.2-.13.44-.2.71-.2.25 0 .45.06.6.15a1 1 0 0 1 .37.4c.08.16.14.34.17.53l.03.28v.05Zm5.02 4.84c.51 0 .93-.15 1.26-.45.33-.31.5-.7.5-1.17 0-.48-.17-.87-.5-1.19a1.75 1.75 0 0 0-1.26-.47c-.5 0-.91.16-1.23.47-.32.32-.48.71-.48 1.19 0 .46.16.85.48 1.16.32.31.73.46 1.23.46Zm4.89-9.02c.46 0 .83-.13 1.1-.38.28-.24.41-.6.41-1.05 0-.44-.13-.8-.4-1.05-.28-.27-.65-.4-1.11-.4-.47 0-.85.13-1.12.4a1.4 1.4 0 0 0-.42 1.05c0 .46.14.8.42 1.05.27.25.65.38 1.12.38Zm-1.53 12.98c.93 0 1.64-.25 2.12-.76.48-.51.72-1.37.72-2.58V3.86h-2.58v8.61c0 .46-.08.77-.24.92-.16.16-.4.23-.74.23-.25 0-.53-.03-.83-.1-.3-.08-.56-.17-.8-.26v2.2c.38.1.74.2 1.1.28.37.08.78.12 1.25.12Zm8.81-3.84c.66 0 1.25-.13 1.78-.37.52-.25.93-.56 1.23-.96a2 2 0 0 0 .45-1.24c0-.48-.15-.88-.46-1.2-.31-.32-.73-.58-1.27-.8l-2.17-.87c-.34-.11-.5-.27-.5-.48 0-.14.07-.26.23-.36.16-.09.38-.13.66-.13.33 0 .57.06.72.19.14.12.21.27.21.44h2.34a2.4 2.4 0 0 0-.85-1.87 3.58 3.58 0 0 0-2.42-.73c-1.12 0-2 .21-2.65.64-.64.43-.96 1-.96 1.7 0 .5.15.92.45 1.28.31.36.75.66 1.31.89l1.91.74c.2.08.35.16.45.24.1.08.14.19.14.32 0 .1-.03.2-.1.29a.7.7 0 0 1-.31.2c-.14.06-.32.09-.53.09-.35 0-.63-.06-.84-.16-.2-.1-.3-.3-.32-.58h-2.3c-.01.61.14 1.12.47 1.52.32.4.77.7 1.34.9.58.2 1.24.3 2 .3Z" /><path fill-rule="evenodd" clip-rule="evenodd" d="m20.27.33 5.8 5.76-5.8 5.77-5.8-5.77 5.8-5.76Z" opacity=".8" /><path fill-rule="evenodd" clip-rule="evenodd" d="m5.8.33 12 11.95H6.22L0 6.1 5.8.33Z"  /></svg>