
<svg xmlns="http://www.w3.org/2000/svg" width="188" height="40" viewBox="0 0 188 40" fill="none"><path d="m16.941 28.57-14.117.001C1.27 28.571 0 27.255 0 25.713c.001-1.541 1.273-2.856 2.824-2.856H8.49c1.544-.011 2.804-1.323 2.805-2.858V2.857C11.295 1.315 12.566 0 14.118 0c1.551 0 2.822 1.315 2.823 2.857v8.08c.001 1.52 1.337 2.855 2.823 2.856 1.552 0 2.823-1.316 2.824-2.857v-8.08c0-1.54 1.272-2.855 2.823-2.856 1.552 0 2.823 1.315 2.824 2.857v34.286c0 1.542-1.272 2.856-2.824 2.857-1.552 0-2.823-1.316-2.823-2.857v-2.857c0-3.155-2.53-5.715-5.647-5.715Z" fill="currentColor"/><path d="M16.296 39.01c2.226 0 4.03-1.826 4.03-4.078 0-2.252-1.804-4.078-4.03-4.078s-4.03 1.826-4.03 4.078c0 2.252 1.804 4.078 4.03 4.078Z" fill="currentColor"/><path fill-rule="evenodd" clip-rule="evenodd" d="M52.678 18.052c-.98-1.243-2.287-1.864-3.925-1.864-.96 0-1.807.236-2.541.706a4.659 4.659 0 0 0-1.694 1.92V8.988l-1.469.367c-1.524.358-2.54.66-3.049.904v.593l.028 19.2c1.638.62 3.37.931 5.196.931 2.748 0 4.931-.762 6.55-2.287 1.6-1.487 2.4-3.454 2.4-5.9 0-1.902-.499-3.483-1.496-4.744Zm-4.123 8.188c-.677.715-1.61 1.073-2.795 1.073-.358 0-.772-.047-1.242-.141v-3.643l.028.057c0-1.054.273-1.939.819-2.654.527-.697 1.167-1.045 1.92-1.045.696 0 1.252.31 1.666.932.414.621.62 1.43.62 2.428 0 1.261-.338 2.259-1.016 2.993Z" fill="currentColor"/><path d="M65.43 21.75c.79-2.07 1.158-3.924 1.101-5.562-1.185 0-2.277.31-3.275.932-.979.602-1.703 1.478-2.174 2.626a20.902 20.902 0 0 0-.932-3.501c-.056.018-.386.094-.988.226a48.04 48.04 0 0 0-1.101.254 13.58 13.58 0 0 0-1.807.593c.32 1.825.48 3.548.48 5.167v3.388c0 2.579.038 4.179.113 4.8 1.374.132 2.899.085 4.574-.141-.113-.96-.17-2.513-.17-4.66 0-1.806.396-3.096 1.186-3.867.79-.753 1.789-.838 2.993-.254Z" fill="currentColor"/><path fill-rule="evenodd" clip-rule="evenodd" d="M75.283 27.398c.847 0 1.656-.123 2.428-.367.79-.264 1.403-.584 1.835-.96.094.696 0 1.75-.282 3.162-.433.452-1.148.856-2.146 1.214-.941.377-1.976.565-3.106.565-2.07 0-3.755-.65-5.054-1.948-1.299-1.28-1.948-3.022-1.948-5.224 0-2.221.725-4.056 2.174-5.506 1.43-1.43 3.21-2.146 5.337-2.146 1.713 0 3.04.5 3.98 1.497.942.979 1.412 2.306 1.412 3.98 0 1.055-.16 1.902-.48 2.542l-8.16.113c.32 2.052 1.657 3.078 4.01 3.078Zm-1.327-7.878c-.659 0-1.233.264-1.722.79-.471.528-.782 1.224-.932 2.09l4.291-.17c.038-.413.057-.705.057-.875 0-1.223-.565-1.835-1.694-1.835ZM90.78 30.955c1.45-.094 2.711-.404 3.784-.931-.451-1.111-.677-2.796-.677-5.055v-2.936c0-3.896-1.902-5.845-5.704-5.845-.922 0-1.77.094-2.541.283-1.355.32-2.504.828-3.445 1.524.019 1.13.16 2.137.424 3.021a7.407 7.407 0 0 1 4.15-1.242c1.826 0 2.74.885 2.74 2.654v.057a23.96 23.96 0 0 0-1.384-.057c-2.146 0-3.84.433-5.083 1.3-1.223.865-1.835 2.041-1.835 3.528 0 1.13.358 2.043 1.073 2.74.715.677 1.647 1.016 2.795 1.016.96 0 1.845-.245 2.654-.734a5.144 5.144 0 0 0 1.92-2.09c.245 1.11.621 2.033 1.13 2.767Zm-2.427-4.15c-.471.508-1.026.762-1.666.762-.415 0-.763-.113-1.045-.339a1.18 1.18 0 0 1-.424-.931c0-1.168 1.054-1.751 3.163-1.751.451 0 .78.01.988.028-.188.96-.527 1.704-1.016 2.23Z" fill="currentColor"/><path d="m111.051 16.584-4.32 5.985 5.393 7.793a30.088 30.088 0 0 1-5.28.424l-3.671-6.381-1.355.282v1.186c0 2.146.056 3.699.169 4.659-1.656.226-3.18.273-4.574.14-.075-.62-.113-2.22-.113-4.8V10.26c.527-.245 1.553-.546 3.078-.904.301-.075.781-.197 1.44-.367v12.65l1.496-.34 3.134-4.884c1.488.113 3.022.17 4.603.17Z" fill="currentColor"/><path fill-rule="evenodd" clip-rule="evenodd" d="M123.39 30.955c1.449-.094 2.71-.404 3.783-.931-.451-1.111-.677-2.796-.677-5.055V8.99c-.057.018-.179.056-.367.112-.17.038-.349.085-.537.141l-.564.113c-1.525.358-2.542.66-3.05.904v5.957a5.933 5.933 0 0 0-.678-.028c-2.729 0-4.903.753-6.522 2.26-1.619 1.524-2.428 3.5-2.428 5.928 0 1.92.499 3.511 1.496 4.772.979 1.243 2.297 1.864 3.953 1.864 1.036 0 1.939-.245 2.711-.734a4.613 4.613 0 0 0 1.75-2.033c.245 1.054.622 1.957 1.13 2.71Zm-2.202-4.715c-.528.697-1.177 1.045-1.949 1.045-.696 0-1.252-.31-1.666-.932-.414-.621-.621-1.43-.621-2.428 0-1.3.339-2.325 1.017-3.078.677-.753 1.609-1.13 2.795-1.13.339 0 .743.048 1.214.142v3.727c0 1.073-.263 1.958-.79 2.654ZM142.577 30.023c-1.072.528-2.334.838-3.783.932-.508-.734-.885-1.656-1.129-2.767a5.148 5.148 0 0 1-1.92 2.09c-.81.49-1.695.734-2.655.734-1.148 0-2.08-.34-2.795-1.017-.715-.696-1.073-1.61-1.073-2.739 0-1.487.612-2.663 1.835-3.529 1.243-.866 2.937-1.299 5.083-1.299.32 0 .781.02 1.383.057v-.057c0-1.77-.913-2.654-2.738-2.654-1.506 0-2.89.414-4.151 1.242-.264-.884-.405-1.891-.424-3.02.942-.697 2.09-1.205 3.445-1.525a10.724 10.724 0 0 1 2.541-.283c3.803 0 5.704 1.949 5.704 5.845v2.936c0 2.26.226 3.944.677 5.054Zm-7.877-2.456c.64 0 1.195-.254 1.666-.762.489-.527.828-1.27 1.016-2.23a12.201 12.201 0 0 0-.988-.03c-2.108 0-3.162.584-3.162 1.752 0 .376.141.686.423.931.283.226.631.34 1.045.34Z" fill="currentColor"/><path d="M159.431 30.419c-.15-.508-.226-2.024-.226-4.546V21.58c0-1.713-.404-3.04-1.214-3.981-.79-.941-1.901-1.412-3.332-1.412-1.11 0-2.117.292-3.021.876-.885.583-1.525 1.411-1.92 2.484a17.331 17.331 0 0 0-.903-3.303c-.057.018-.386.094-.989.226-.64.15-.997.235-1.073.254-.64.15-1.251.348-1.835.593.32 1.825.48 3.548.48 5.167v3.388c0 2.579.038 4.179.113 4.8 1.374.132 2.899.085 4.574-.141-.113-.96-.169-2.513-.169-4.66v-1.947c0-1.13.292-2.043.875-2.74.565-.696 1.261-1.044 2.09-1.044.564 0 1.007.188 1.327.565.32.376.48.903.48 1.581v3.586c0 2.805.037 4.442.113 4.913a22.812 22.812 0 0 0 4.63-.367ZM168.242 31.012c-2.014 0-3.652-.66-4.913-1.977-1.261-1.28-1.892-2.993-1.892-5.139 0-2.296.744-4.16 2.231-5.59 1.468-1.412 3.313-2.118 5.534-2.118 1.619 0 2.946.31 3.981.932.038 1.28-.235 2.645-.819 4.094-.847-.885-1.873-1.327-3.077-1.327-.998 0-1.798.339-2.4 1.017-.603.658-.904 1.524-.904 2.597 0 1.13.329 2.014.988 2.654.678.621 1.563.932 2.654.932.678 0 1.356-.122 2.033-.367.697-.245 1.224-.527 1.581-.847.095.81-.009 1.986-.31 3.53-1.148 1.072-2.711 1.609-4.687 1.609Z" fill="currentColor"/><path fill-rule="evenodd" clip-rule="evenodd" d="M184.926 27.03a7.986 7.986 0 0 1-2.428.368c-2.353 0-3.69-1.026-4.01-3.078l8.16-.113c.32-.64.48-1.487.48-2.541 0-1.675-.47-3.003-1.412-3.981-.941-.998-2.268-1.497-3.981-1.497-2.127 0-3.906.716-5.336 2.146-1.45 1.45-2.174 3.285-2.174 5.506 0 2.202.649 3.944 1.948 5.224 1.299 1.298 2.983 1.948 5.054 1.948 1.129 0 2.165-.189 3.106-.565.998-.358 1.713-.762 2.146-1.214.282-1.412.376-2.466.282-3.162-.433.376-1.045.696-1.835.96Zm-5.478-6.72c.49-.526 1.064-.79 1.723-.79 1.129 0 1.694.612 1.694 1.835 0 .17-.019.462-.057.876l-4.292.169c.151-.866.462-1.562.932-2.09Z" fill="currentColor"/></svg>