<svg viewBox="0 0 459 95" fill="none" xmlns="http://www.w3.org/2000/svg">
<path d="M155.598 31.5352C164.27 31.5352 171.457 34.5625 177.16 40.6172C182.785 46.6719 185.598 54.1328 185.598 63C185.598 71.9063 182.766 79.3672 177.102 85.3828C171.398 91.4375 164.231 94.4648 155.598 94.4648C148.059 94.4648 141.613 91.7696 136.262 86.3789V93H120.559V13.0781L137.727 11.1445L139.133 12.0234V36.457C144.094 33.1758 149.582 31.5352 155.598 31.5352ZM152.609 78.5859C157.023 78.5859 160.598 77.1016 163.332 74.1328C166.027 71.2031 167.375 67.4922 167.375 63C167.375 58.5078 166.008 54.7774 163.273 51.8086C160.539 48.8789 156.984 47.4141 152.609 47.4141C148.469 47.4141 145.012 48.8203 142.238 51.6328C139.465 54.5235 138.078 58.3125 138.078 63C138.078 67.6875 139.465 71.457 142.238 74.3086C144.973 77.1602 148.43 78.5859 152.609 78.5859ZM239.094 33.5859L239.914 35.0508L236.105 48L234.758 48.8203C233.056 47.8581 230.81 47.3868 228.021 47.4063L227.551 47.4141C223.957 47.4141 221.047 48.6445 218.82 51.1055C216.555 53.6055 215.422 56.8476 215.422 60.832V93H196.848V33H212.434V40.793C216.73 34.6211 222.258 31.5352 229.016 31.5352C232.453 31.5352 235.812 32.2187 239.094 33.5859ZM267.98 12.1406C267.98 15.2656 266.867 17.9414 264.641 20.168C262.414 22.3945 259.699 23.5078 256.496 23.5078C253.254 23.5078 250.559 22.3945 248.41 20.168C246.184 17.9414 245.07 15.2656 245.07 12.1406C245.07 8.93748 246.184 6.20314 248.41 3.9375C250.559 1.71093 253.254 0.597656 256.496 0.597656C259.699 0.597656 262.414 1.71093 264.641 3.9375C266.867 6.20314 267.98 8.93748 267.98 12.1406ZM265.695 93H247.238V33H265.695V93ZM309.758 94.4648C300.383 94.4648 292.59 91.4766 286.379 85.5C280.168 79.5234 277.062 72.0235 277.062 63C277.062 53.9765 280.168 46.4766 286.379 40.5C292.59 34.5234 300.383 31.5352 309.758 31.5352C320.031 31.5352 328.293 35.0703 334.543 42.1406V43.4297L324.23 52.9219H322.824C319.621 49.25 315.5 47.4141 310.461 47.4141C306.047 47.4141 302.453 48.8594 299.68 51.75C296.867 54.6797 295.461 58.4297 295.461 63C295.461 67.4558 296.775 71.0902 299.403 73.9033L299.68 74.1914C302.453 77.1211 306.086 78.5859 310.578 78.5859C315.773 78.5859 319.855 76.75 322.824 73.0781H324.23L334.543 82.5703V83.8594C328.293 90.9297 320.031 94.4648 309.758 94.4648ZM404.387 34.3477L381.594 60.2461L405.207 91.6523L404.387 93H384.23L367.648 69.5039L362.961 74.7773V93H344.387V13.0781L361.555 11.1445L362.961 12.0234V58.3125L384.23 33H403.566L404.387 34.3477ZM433.684 94.582C428.137 94.582 422.961 93.5664 418.156 91.5352C413.391 89.582 409.602 86.9063 406.789 83.5078V82.2188L415.051 72.9609H416.398C418.195 75.1094 420.754 76.9258 424.074 78.4102C427.395 79.8945 430.637 80.6367 433.801 80.6367C435.949 80.6367 437.687 80.1973 439.016 79.3184C440.344 78.4394 441.008 77.3164 441.008 75.9492C441.008 74.8555 440.568 73.8594 439.689 72.9609C438.811 72.0625 437.785 71.3594 436.613 70.8516L436.181 70.6714C435.397 70.3547 433.998 69.8288 431.984 69.0938C429.641 68.3906 427.59 67.707 425.832 67.043C424.387 66.5742 422.492 65.7148 420.148 64.4648C418 63.4102 416.262 62.2188 414.934 60.8906C411.809 57.6875 410.246 53.9571 410.246 49.6992C410.246 44.1133 412.434 39.6602 416.809 36.3398C421.184 33.0586 427.043 31.418 434.387 31.418C439.504 31.418 444.23 32.3164 448.566 34.1133C452.863 35.9102 456.184 38.293 458.527 41.2617V42.6094L450.324 51.2227H449.035C444.621 46.9258 439.738 44.8164 434.387 44.8945C432.473 44.8945 430.92 45.2754 429.729 46.0371C428.537 46.7988 427.941 47.7656 427.941 48.9375C427.941 49.8806 428.312 50.6553 429.053 51.2615L429.23 51.3984C430.168 52.1406 431.301 52.7852 432.629 53.332C434.387 54.0352 436.086 54.6797 437.727 55.2656L437.867 55.3056C438.232 55.4235 439.162 55.7812 440.656 56.3789C446.633 58.6836 451.105 61.2617 454.074 64.1133C457.043 66.9649 458.527 71.0273 458.527 76.3008C458.527 81.8086 456.242 86.2226 451.672 89.543C447.062 92.9024 441.066 94.582 433.684 94.582Z" fill="currentColor"/>
<path opacity="0.5" d="M80 53H40V93H80V53Z" fill="currentColor"/>
<path d="M40 53H0V93H40V53Z" fill="currentColor"/>
<path opacity="0.75" d="M40 13H0V53H40V13Z" fill="currentColor"/>
</svg>
