<svg viewBox="0 0 96 23" fill="none" xmlns="http://www.w3.org/2000/svg">
<path d="M33.144 14.0152C31.5671 14.0152 30.697 13.0199 30.9145 11.5942C31.1592 10.1415 32.3556 9.1731 33.9054 9.1731C34.721 9.1731 35.4552 9.54971 35.8902 10.1146L37.4128 8.87719C36.5971 7.96257 35.428 7.50526 34.1773 7.50526C31.6214 7.50526 29.3919 9.2 29.0112 11.5942C28.6306 14.0152 30.262 15.683 32.845 15.683C34.1501 15.683 35.4552 15.145 36.5971 14.2573L35.5095 13.0199C34.721 13.7193 33.9054 14.0152 33.144 14.0152ZM43.3673 7.58596C43.3673 7.58596 43.041 7.53216 43.0139 7.53216C42.6604 7.47836 42.2797 7.50526 41.9263 7.53216C41.6 7.55906 41.2737 7.61287 40.9474 7.72047C40.6756 7.80117 40.3765 7.90877 40.1318 8.07018L40.1861 7.69357H38.3373L37.0865 15.4947H38.9354L39.6695 10.9485C39.6967 10.6795 39.8055 10.4374 39.9414 10.2222C40.0774 10.007 40.2677 9.81871 40.4852 9.68421C40.7027 9.52281 40.9203 9.4152 41.165 9.3345C41.4097 9.2538 41.6544 9.2 41.9263 9.1731C42.2797 9.1462 42.6604 9.1731 43.0139 9.2538H43.041C43.0954 9.2538 43.3673 7.58596 43.3673 7.58596ZM49.8384 8.17778C49.3218 7.74737 48.5333 7.50526 47.6089 7.50526C45.2978 7.50526 43.2042 9.1462 42.7963 11.5673C42.4157 13.9883 44.0199 15.6292 46.2494 15.6292C47.2554 15.6292 48.0983 15.4947 48.8052 15.0105L48.7508 15.4409H50.4366L51.6601 7.69357H49.92L49.8384 8.17778ZM49.4578 11.5673C49.2131 13.0468 48.0983 14.069 46.6573 14.069C45.189 14.069 44.3461 12.993 44.5908 11.5404C44.8356 10.0877 46.0047 9.0655 47.4457 9.0655C48.8868 9.0924 49.6753 10.0877 49.4578 11.5673ZM60.1976 7.69357L60.5511 5.48772L58.4303 6.99415L58.3216 7.72047H55.9289L56.1736 6.24094C56.3095 5.54152 57.0708 5.56842 57.0708 5.56842H57.9681L58.24 3.95439H57.2068H56.9621C54.4335 3.95439 54.3519 5.89123 54.3519 5.89123L54.1888 6.80585L54.0528 7.72047H53.8897L51.8233 9.3345H53.7809L52.5302 17.2164H54.4335L55.6842 9.3076H58.0769L57.098 15.4947H58.9741L59.9529 9.3076H62.2912L62.5631 7.69357H60.1976ZM65.2277 11.5942C65.6084 9.2 67.8107 7.50526 70.3937 7.50526C71.6444 7.50526 72.8136 7.98947 73.6293 8.87719L72.1067 10.1146C71.6716 9.54971 70.9375 9.1731 70.1218 9.1731C68.572 9.1731 67.3757 10.1684 67.131 11.5942C66.9135 13.0199 67.7835 14.0152 69.3605 14.0152C70.1218 14.0152 70.9375 13.7193 71.726 13.0199L72.8136 14.2573C71.6716 15.1719 70.3665 15.683 69.0614 15.683C66.4784 15.683 64.8471 14.0152 65.2277 11.5942ZM87.2512 10.7602L86.5171 15.4947H84.6682L85.4023 10.8947C85.5927 9.81871 84.9945 9.1731 83.9341 9.1731C82.8193 9.1731 81.7046 9.84561 81.5414 10.9485L80.8073 15.4947H78.9584L79.6925 10.8947C79.8557 9.84561 79.2303 9.2 78.2243 9.1731C77.1911 9.2269 75.9948 9.87251 75.8316 10.9485L75.0975 15.4947H73.2486L74.4993 7.69357H76.3482L76.2938 8.07018C76.9192 7.69357 77.6261 7.53216 78.5234 7.50526H78.6865C79.8285 7.50526 80.7529 7.96257 81.2423 8.74269C82.0037 7.96257 83.1728 7.50526 84.342 7.50526C86.354 7.50526 87.5775 8.82339 87.2512 10.7602ZM87.1697 14.5532L88.3116 13.1544C88.937 13.6386 90.1333 14.0152 91.1393 14.0152C92.0638 14.0152 92.9882 13.8269 93.097 13.2082C93.1786 12.724 92.2813 12.5626 91.2753 12.4012C89.1817 12.0515 88.1213 11.6211 88.3388 10.0608C88.6651 8.09708 90.7043 7.53216 92.3901 7.53216C93.5864 7.53216 94.8371 7.93567 95.68 8.50058L94.538 9.89941C93.8855 9.49591 93.0426 9.2 92.091 9.2C90.9762 9.2 90.3237 9.52281 90.2421 10.0339C90.1877 10.3836 90.4868 10.5181 91.7919 10.7333C93.6952 11.0561 95.2721 11.352 94.9731 13.1544C94.7284 14.7953 93.0426 15.7099 90.8403 15.7099C89.6167 15.683 88.0397 15.2526 87.1697 14.5532ZM20.8 0H2.44706C1.08758 0 0 1.07602 0 2.42105V20.5789C0 21.924 1.08758 23 2.44706 23H20.8C22.1323 23 23.2471 21.924 23.2471 20.5789V2.42105C23.2471 1.07602 22.1595 0 20.8 0ZM11.5827 14.0152C12.3441 14.0152 13.1597 13.7193 13.9482 13.0199L15.0358 14.2573C13.8939 15.1719 12.5888 15.683 11.2837 15.683C8.70065 15.683 7.06928 13.9883 7.44993 11.5942C7.83059 9.2 10.0329 7.50526 12.6159 7.50526C13.8667 7.50526 15.0358 7.98947 15.8515 8.87719L14.3289 10.1146C13.8939 9.54971 13.1597 9.1731 12.3441 9.1731C10.7942 9.1731 9.59791 10.1684 9.3532 11.5942C9.13569 13.0199 10.0058 14.0152 11.5827 14.0152Z" />
</svg>
