<svg viewBox="0 0 27 22" fill="none" xmlns="http://www.w3.org/2000/svg"><path fill-rule="evenodd" clip-rule="evenodd" d="M14.26.04a.68.68 0 0 0-.27.28c-.06.12-.12.39-.14.61l-.22 4.73v.08l-.38.01c-.42.01-.5.04-.63.2-.18.19-.21.37-.21 1.05s.04.9.21 1.07c.15.15.22.17.63.18l.38.01v3.58c.02 3.81.01 3.62.13 4.3a7 7 0 0 0 .25.95 2.4 2.4 0 0 0 1.24 1.4c.53.25.65.27 1.9.28.92 0 1.04 0 1.15-.03a.7.7 0 0 0 .39-.39c.05-.13.05-.15.05-.76v-.63l-.06-.14a.56.56 0 0 0-.3-.3c-.1-.06-.13-.06-.75-.07-.73-.02-.74-.02-.9-.2a.92.92 0 0 1-.24-.46c-.11-.44-.11-.53-.11-4.15V8.26h.78c.76-.01.78-.01.89-.07.13-.06.24-.2.3-.38.1-.29.1-1.33 0-1.62a.66.66 0 0 0-.3-.38c-.11-.05-.13-.05-.9-.06h-.77V3.29c0-1.46-.01-2.52-.03-2.61-.05-.34-.21-.6-.42-.66A6.94 6.94 0 0 0 15.1 0c-.67 0-.75 0-.84.04ZM9.98.51a640.32 640.32 0 0 1-3.22.83.64.64 0 0 0-.35.24c-.16.22-.15.21-.15 1.2 0 .82 0 .92.04 1.03.08.25.27.4.5.41.06 0 .26-.03.48-.09l.38-.1.01 6.95c0 6.24 0 6.97.04 7.14.06.33.22.55.42.6.12.04 2.13.04 2.25 0 .2-.04.34-.25.42-.58.04-.17.05-.56.05-8.4l-.01-8.49c-.04-.4-.15-.63-.36-.73a.85.85 0 0 0-.5 0ZM2.22.92l-1.74.45a.63.63 0 0 0-.33.24C0 1.82 0 1.8 0 2.8c0 .82 0 .9.04 1.03.08.24.28.4.5.4.06 0 .26-.03.48-.09l.39-.09V11c0 6.24.01 6.97.05 7.14.06.33.21.56.41.61.06.02.47.03 1.13.03 1.18 0 1.2 0 1.34-.17.1-.1.16-.23.21-.44.04-.15.04-.7.05-8.42 0-5.37 0-8.34-.02-8.5 0-.15-.04-.3-.06-.36a.65.65 0 0 0-.3-.35c-.18-.08-.25-.06-2 .38ZM19.6 5.78c-.19.07-.3.25-.34.55v.31c0 .08.56 2.43 1.24 5.22l1.34 5.6c.1.47.1.53.1.85 0 .59-.1 1.03-.31 1.26-.06.06-.04.06-.58-.09a3.28 3.28 0 0 0-.5-.11.5.5 0 0 0-.38.2c-.22.29-.29 1.16-.13 1.63.05.16.35.46.56.56.36.18.65.24 1.19.24.59 0 .95-.1 1.31-.36.47-.33.84-1.08 1.15-2.3.14-.57 2.44-12.45 2.46-12.7.03-.44-.1-.75-.34-.86a6.5 6.5 0 0 0-1.43 0c-.24.07-.42.31-.5.65a621.95 621.95 0 0 1-1.08 7.07l-.61-3.18-.69-3.59c-.11-.58-.22-.78-.49-.9l-.13-.07h-.87c-.71-.01-.9 0-.97.02Z" /></svg>