<svg viewBox="0 0 290 49" fill="none" xmlns="http://www.w3.org/2000/svg"><path fill-rule="evenodd" clip-rule="evenodd" d="M18.9.58C10.43 2.4 3.92 8.28 1.06 16.72.15 19.39-.01 20.49 0 24.28c0 3.7.18 4.96 1.06 7.68 2.6 8.08 9.76 14.8 17.53 16.48 9.51 2.06 19.5-1.68 24.83-9.3a25.97 25.97 0 0 0 4.26-17.06c-.22-2.11-.36-2.61-.45-1.63-.84 8.66-6.41 17.44-13.55 21.32-4.24 2.3-9.1 3-13.2 1.89-4.43-1.2-5.8-2.53-6.04-5.85-.36-5.03 2.4-7.15 14.13-10.9 11.18-3.58 15.8-7.2 15.8-12.39 0-2.83-1.33-5.48-4.2-8.36C35.06 1.01 26.87-1.14 18.9.58Zm9.4 5.28c3.23 1.54 6.26 4.5 7.19 7.04.62 1.7.63 2.08.15 3.38-.89 2.38-2.8 3.57-9.64 6.02-11.53 4.12-16.6 7.2-18.36 11.16-.64 1.44-.7 1.48-.96.6a51.9 51.9 0 0 1-.5-6.17c-.18-4.56-.1-5.66.64-8.4a40.7 40.7 0 0 1 1.86-5.35c1.92-4.12 6.75-8.42 10.6-9.44 2.4-.64 6.3-.14 9.02 1.16Zm229.32 2.51c-.44.45-.8 1.08-.8 1.41 0 .92 1.47 2.22 2.51 2.22 1.93 0 2.92-2.47 1.52-3.77-.98-.9-2.27-.84-3.23.14ZM91.76 17.43v8.66h3.95v-3.95c0-4.3.25-4.91 2.05-4.91h1.1v8.86h4.35v-4.6c0-4.75-.25-6.07-1.38-7.22-.82-.84-3.4-.87-4.96-.05l-1.16.62V8.78h-3.95v8.65Zm111.36.2v8.86h1.6c1.02 0 1.66-.2 1.8-.58.19-.49.46-.45 1.7.2 1.95 1.04 3.64.69 5.15-1.07a8.04 8.04 0 0 0 .2-10.17 3.97 3.97 0 0 0-4.89-1.08c-.65.34-1.23.62-1.3.62-.06 0-.05-1.26.02-2.81l.13-2.82h-4.4v8.85Zm21.84-6.04c.13 1.55.15 2.82.04 2.82-.1 0-.62-.29-1.14-.64-1.83-1.21-4.62.1-6.03 2.86-.83 1.6-.8 5.68.06 7.36 1.29 2.54 3.78 3.4 6.16 2.15 1.29-.69 1.58-.73 1.58-.25 0 .44.47.6 1.78.6h1.78V8.78h-4.46l.23 2.81Zm-56.98-1.54c0 .5 1.75 10.9 2.4 14.33l.42 2.11h5.34l.94-5.33c.52-2.94.98-5.07 1.04-4.73.05.33.47 2.73.94 5.33l.85 4.73h2.71c2.5 0 2.73-.07 2.92-.9.23-1.03 2.58-15.4 2.58-15.77 0-.13-.89-.24-1.97-.24-1.72 0-2 .12-2.17.9-.18.78-1.35 10.17-1.42 11.37-.01.23-.59-2.4-1.28-5.83l-1.26-6.24-1.8-.12-1.81-.12-.84 3.95-1.33 6.36-.49 2.41-.3-2.61c-.16-1.44-.5-4.3-.76-6.34l-.47-3.73h-2.12c-1.35 0-2.12.17-2.12.47Zm-100.3 7.99v8.05h10.65v-3.63H72.02V19.65h5.13v-3.62h-5.13V13.6h5.92V9.98H67.67v8.06Zm124.76-3.93c-1.28.66-2 1.39-2.65 2.7-2.73 5.52 1.71 11.24 7.5 9.66 2.45-.67 2.77-1.03 2.1-2.37-.53-1.03-.7-1.1-2.69-.92-1.63.14-2.28.02-2.79-.5-.36-.37-.66-.84-.66-1.05 0-.2 1.6-.37 3.55-.37h3.56V19.4c0-2.68-1-4.54-2.93-5.43-2.1-.97-2.86-.95-4.99.14Zm42.65 0c-1.28.66-2 1.39-2.65 2.7-2.73 5.52 1.71 11.24 7.5 9.66 2.45-.67 2.77-1.03 2.1-2.37-.53-1.03-.7-1.1-2.69-.92-1.63.14-2.28.02-2.79-.5-.36-.37-.66-.84-.66-1.05 0-.2 1.6-.37 3.55-.37h3.56V19.4c0-2.68-1-4.54-2.94-5.43-2.1-.97-2.85-.95-4.98.14Zm13.45-.5c-2.84.7-4.12 4.03-2.31 6.01a9.37 9.37 0 0 0 2.55 1.7c1.94.88 2.4 1.42 1.76 2.08-.34.34-.9.3-2.27-.21-1.79-.65-1.84-.65-2.54.2-1 1.23-.92 1.78.35 2.45a6.75 6.75 0 0 0 5.83.46c2.04-.8 2.94-1.9 2.94-3.63 0-1.79-1-2.99-3.4-4.07-1.17-.53-2.13-1.12-2.13-1.32 0-.7 1.24-.84 2.53-.3 1.38.6 1.28.65 2.72-1.64.7-1.12-3.57-2.35-6.03-1.74Zm18.96 0c-3.06.75-4.52 4.34-2.78 6.83.69.99.71 1.19.2 1.63-.69.58-.79 2.85-.15 3.5.31.32.2.67-.4 1.28-1.12 1.14-1.04 2.51.2 3.7.9.87 1.35.97 4.43.97 2.87 0 3.66-.15 4.86-.9 2.5-1.59 3-4.6.98-5.95-.52-.34-2.33-.75-4.04-.91-2.38-.22-3.11-.43-3.11-.9 0-.38.3-.55.87-.48 1.5.22 4-.7 4.83-1.8.46-.58.81-1.64.81-2.4 0-1.08.16-1.35.8-1.35.65 0 .78-.27.78-1.61V13.6h-2.66c-1.47-.01-3.02-.09-3.46-.18a6.29 6.29 0 0 0-2.16.18Zm17.17-.12a6.3 6.3 0 0 0-1.78 1.01l-.99.8-.12-.85c-.1-.71-.4-.84-1.88-.84h-1.75v12.88h4.35V22.1c0-4.61.1-4.87 1.96-4.87 1.02 0 1.2.77 1.2 5.27v3.99H290v-4.13c-.02-4.72-.42-6.95-1.45-8-.79-.8-2.63-1.22-3.88-.87ZM81.1 19.85v6.24h4.34v-3.63c0-4.1.6-5.23 2.76-5.23.96 0 1.22-.2 1.42-1.1.13-.62.32-1.43.43-1.82.3-1.17-2.7-.96-3.87.27-1 1.07-1.53 1-1.53-.2 0-.65-.28-.77-1.77-.77H81.1v6.24Zm24.16-5.67c.07.3.92 3.12 1.9 6.24l1.78 5.68 2.55-.1 2.56-.11 1.7-5.44 1.9-6.14c.2-.6-.05-.7-1.76-.7-2.24 0-1.99-.43-3.42 5.79-.4 1.68-.82 3.06-.96 3.06-.13 0-.54-1.3-.91-2.91-1.45-6.3-1.24-5.94-3.49-5.94-1.5 0-1.95.13-1.85.57Zm16.36.2c-3.64 2.45-3.71 8.33-.13 11.05 1.3 1 4.91 1.16 6.87.32 1.26-.54 1.26-.55.65-1.85-.6-1.27-.64-1.3-2.17-.88-1.23.34-1.78.3-2.6-.16-2.1-1.22-1.56-1.6 2.24-1.6h3.59v-1.63c0-2.12-.83-4.06-2.18-5.15-1.43-1.15-4.64-1.2-6.27-.1Zm10.81 5.47v6.24h4.35v-3.63c0-4.1.6-5.23 2.76-5.23 1.2 0 1.2 0 1.77-2.92.22-1.16-2.73-.96-3.93.26-1.01 1.03-1.4.97-1.4-.22 0-.61-.3-.74-1.77-.74h-1.78v6.24Zm9.48-5.95c0 .18.86 2.95 1.91 6.16l1.91 5.83 2.53.11 2.54.12 1.73-5.55a507.2 507.2 0 0 0 1.92-6.26c.16-.6-.1-.7-1.81-.7-2.28 0-2.13-.26-3.49 6.14-.36 1.71-.73 3.04-.83 2.94-.1-.1-.65-2.13-1.24-4.53l-1.07-4.35-2.05-.12c-1.13-.07-2.05.03-2.05.2Zm16.34.1a3.84 3.84 0 0 0-2.12 3.27c0 1.54 1.35 3.06 3.6 4.04 1.08.48 1.9 1.06 1.81 1.31-.23.72-2.22.76-3.24.08-.9-.6-.98-.57-1.82.64l-.88 1.26.87.72c1.04.86 3.85 1.36 5.53.98 1.8-.4 3.15-1.68 3.44-3.25.36-1.95-.6-3.26-3.25-4.46-3-1.35-2.27-2.62.9-1.57.65.21 1.03 0 1.67-.92l.84-1.2-1.34-.65c-1.43-.69-4.62-.82-6.01-.24Zm98.97 6.05v6.44h4.35V13.61h-4.35v6.44Zm13.23-2.82c.45 1.43-.14 2.48-1.31 2.34-1.08-.13-1.58-1.3-1.1-2.57.33-.89 2.12-.72 2.41.23ZM126.12 17c0 .09.1.45.24.8.2.53-.09.64-1.58.64-1.86 0-2.19-.27-1.35-1.13.43-.44 2.69-.7 2.69-.31Zm70.29 0c0 .09.1.45.24.8.2.53-.08.64-1.58.64-1.86 0-2.19-.27-1.35-1.13.44-.44 2.69-.7 2.69-.31Zm13.72.33c.68.89.88 2.53.48 4.01-.42 1.54-1.21 2.1-2.41 1.71-.61-.2-.73-.65-.73-2.75 0-1.41.2-2.72.47-2.99.62-.63 1.7-.62 2.19.02Zm14.09-.26c.9.36.9 5.6 0 5.95-1.63.64-2.54-.43-2.54-2.97 0-2.55.91-3.61 2.54-2.98Zm14.84-.07c0 .09.1.45.24.8.2.53-.09.64-1.58.64-1.86 0-2.19-.27-1.35-1.13.44-.44 2.69-.7 2.69-.31Zm32.63 10.42c.13.13.14.52 0 .86-.16.45-.78.63-2.19.63-2.04 0-2.64-.4-2.24-1.48.2-.5.67-.6 2.22-.44 1.09.1 2.08.3 2.21.43ZM87.56 30.94c-1.05.4-2.51 3.26-1.8 3.5.3.1.48 1.06.48 2.55 0 2.11.1 2.38.8 2.38.7 0 .78-.27.78-2.41 0-1.88.13-2.42.6-2.42a.6.6 0 0 0 .59-.6.6.6 0 0 0-.6-.6.6.6 0 0 1-.59-.61c0-.33.27-.6.6-.6.6 0 .82-1.02.29-1.34-.16-.1-.68-.03-1.15.15Zm21.2.35c0 .58.25.84.81.84 1.01 0 .9-1.34-.13-1.54-.48-.1-.69.13-.69.7Zm24.34-.1c-.14.14-.26 2.05-.26 4.22 0 3.7.05 3.96.79 3.96s.79-.27.79-4.22c0-3.26-.12-4.23-.53-4.23-.29 0-.64.12-.79.27Zm27.78 3.96c0 3.95.05 4.22.79 4.22.43 0 .79-.18.79-.41 0-.3.24-.3.76 0 3.02 1.64 5.5-2.5 3-5.04-1.12-1.15-1.68-1.22-2.89-.36-.86.62-.87.6-.87-1 0-1.37-.13-1.64-.8-1.64-.73 0-.78.27-.78 4.23Zm7.5 0c0 3.95.05 4.22.8 4.22.43 0 .78-.18.78-.41 0-.3.24-.3.76 0 1.91 1.04 3.98-.22 3.98-2.43 0-2.62-2-4.2-3.8-3-.93.62-.94.62-.94-1 0-1.34-.13-1.61-.79-1.61-.74 0-.79.27-.79 4.23Zm-100.7.2c0 3.75.05 4.02.8 4.02.63 0 .78-.27.78-1.36 0-1.2.14-1.38 1.26-1.61 1.58-.32 2.7-1.33 2.68-2.42 0-1.7-1.43-2.66-3.91-2.66h-1.6v4.03Zm75.28-1.51c1.2 5.32 1.3 5.53 2.28 5.53.79 0 1-.35 1.62-2.66.77-2.9.99-2.83 1.77.55.41 1.81.61 2.11 1.41 2.11.97 0 .96.04 2.17-4.93.23-.94.52-2.04.63-2.45.17-.58.03-.7-.69-.6-.78.11-.97.5-1.4 2.9a21.72 21.72 0 0 1-.65 2.91c-.07.08-.45-1.22-.84-2.89-.62-2.7-.8-3.02-1.55-2.91-.7.1-.99.66-1.63 3.14l-.78 3.02-.53-2.62c-.73-3.57-.75-3.62-1.61-3.62-.74 0-.75.1-.2 2.52Zm-6.93-.83c-.41.95-.44 1.33-.1 1.44.27.1.46.98.46 2.12 0 2.02.6 2.8 2.15 2.8.79 0 .8-1.04.03-1.35-.4-.15-.6-.78-.6-1.86 0-1.17.17-1.62.6-1.62a.6.6 0 0 0 .59-.6.6.6 0 0 0-.6-.6c-.32 0-.59-.36-.59-.81 0-1.3-1.31-.97-1.94.48Zm-64.64.45c.35.58.28.84-.33 1.3-1.27.97-1.8.72-1.8-.85 0-1.24.12-1.42.85-1.3.47.06 1.04.45 1.28.85Zm6.03-.26c-.14.14-.88.24-1.64.21l-1.38-.05v3c0 2.74.07 3.01.78 3.01.69 0 .8-.27.8-2.02 0-1.76.12-2.08.98-2.48.54-.25.99-.8.99-1.2 0-.8-.11-.9-.53-.47Zm3.3 0c-2.08.81-2.73 3.8-1.2 5.37 1.82 1.85 5.14.37 5.14-2.3 0-2.1-2.14-3.76-3.95-3.06Zm10.84.11c-1.27.53-1.84 1.5-1.84 3.12 0 2.54 2.61 3.82 4.73 2.32 1.62-1.16.6-1.98-1.1-.89-.57.36-.98.38-1.46.07-1.47-.95-1.01-1.38 1.47-1.38 2.35 0 2.44-.03 2.21-.9a8.17 8.17 0 0 1-.24-1.2c0-.32-2.15-1.53-2.65-1.5-.17.02-.68.18-1.12.36Zm6.27.03c-1.93.78-1.6 2.42.66 3.33.87.34 1.57.82 1.57 1.06 0 .55-1.45.57-1.77.03-.14-.22-.6-.4-1.03-.4-.65 0-.71.13-.36.8.82 1.57 4.06 1.56 4.55-.01.33-1.07-.38-1.92-1.93-2.33-.68-.18-1.29-.63-1.36-1-.15-.8.78-.9 1.9-.2.94.61 1.55.1.77-.65a2.84 2.84 0 0 0-3-.63Zm5.94-.01c-1.91.78-1.54 2.6.68 3.28.84.26 1.54.72 1.54 1.01 0 .63-1.42.74-1.78.14-.13-.22-.6-.4-1.02-.4-.66 0-.72.13-.37.8.84 1.6 4.07 1.55 4.57-.07.31-1-.96-2.34-2.21-2.34-.92 0-1.39-.74-.83-1.32.32-.31.71-.29 1.43.1 1.15.64 1.81.25.97-.56-.8-.78-2-1.04-2.98-.64Zm9.45 0c-1.83.77-2.32 3.82-.84 5.22 1.12 1.07 3.23 1.08 4.27.02 1.01-1.04 1.07-3.64.1-4.54a3.57 3.57 0 0 0-3.53-.7Zm7.86.23c-.5.35-.88.44-.88.2 0-.23-.35-.43-.79-.43-.72 0-.79.27-.79 3.02s.07 3.02.8 3.02c.66 0 .78-.27.78-1.78 0-2.39.3-3.05 1.41-3.05 1.17 0 1.75 1.07 1.75 3.2 0 1.18.17 1.63.6 1.63.46 0 .59-.55.59-2.6 0-2.22-.13-2.67-.88-3.21a3.35 3.35 0 0 0-1.3-.63c-.22 0-.8.28-1.29.63Zm6.38-.17c-1.83.92-2.22 3.5-.76 5a3.08 3.08 0 0 0 4.08.36c1.62-1.16.6-1.98-1.1-.89-.57.36-.98.38-1.46.07-1.43-.92-1.02-1.38 1.23-1.38 2.05 0 2.2-.06 2.2-.94 0-1.77-2.48-3.08-4.2-2.22Zm28.01-.06c-2.86 1.2-1.83 6.04 1.29 6.04 1.63 0 3.7-1.69 2.38-1.94-.4-.08-1.14.07-1.64.35-1.07.58-2.15.27-2.15-.6 0-.49.48-.63 2.17-.63 2.02 0 2.17-.06 2.17-.94 0-1.74-2.4-3.04-4.22-2.28Zm29.96.24c-.49.35-.86.43-.86.19 0-.23-.35-.43-.79-.43-.72 0-.79.27-.79 3.02s.07 3.02.8 3.02c.66 0 .78-.27.79-1.7 0-2 .26-2.52 1.47-2.9.88-.28 1.2-1.2.56-1.6-.18-.11-.71.07-1.18.4Zm3.84-.19c-1.98.74-2.5 3.44-.96 5a3.08 3.08 0 0 0 4.07.37c1.63-1.16.61-1.98-1.1-.89-.57.36-.97.38-1.45.07-1.43-.92-1.03-1.38 1.22-1.38 2.06 0 2.21-.06 2.21-.94 0-1.73-2.13-2.92-4-2.23Zm6.22.39c-.81.64-1.05 1.18-1.05 2.41 0 2.56 1.92 3.9 3.98 2.78.53-.3.76-.3.76 0 0 .23.36.41.8.41.71 0 .78-.27.78-3.02s-.07-3.02-.79-3.02c-.43 0-.79.2-.79.43 0 .24-.38.15-.88-.2-1.15-.82-1.57-.8-2.81.2Zm-86.74 2.58c0 2.75.07 3.02.8 3.02.71 0 .78-.27.78-3.02s-.07-3.02-.79-3.02-.79.27-.79 3.02Zm67.13-.63c0 3.28 1.32 4.47 3.58 3.24.53-.3.77-.3.77 0 0 .23.35.41.79.41.72 0 .79-.27.79-3.02s-.07-3.02-.8-3.02c-.67 0-.78.27-.78 1.94 0 2.04-.5 2.9-1.67 2.9-.85 0-1.5-1.49-1.5-3.45 0-.96-.17-1.39-.58-1.39-.46 0-.6.54-.6 2.4Zm26.07-.26c0 2.58.78 3.91 2.31 3.91.6 0 1.3-.21 1.56-.48.37-.38.47-.38.47 0 0 .27.36.48.8.48.71 0 .78-.27.78-3.02s-.07-3.02-.79-3.02c-.68 0-.79.27-.79 1.97 0 3.81-2.47 3.91-2.69.1-.1-1.74-.24-2.07-.88-2.07-.67 0-.77.3-.77 2.13ZM93.56 34.7c1.03.77.57 1.12-1.24.97-1.43-.13-1.47-.16-.8-.84.84-.85 1.06-.86 2.04-.13Zm35.88-.33c1.2.47.7 1.37-.76 1.37-1.49 0-1.8-.52-.69-1.18.85-.5.7-.48 1.45-.19Zm28.19.24c.8.81.54 1.13-.9 1.13-1.5 0-1.8-.52-.7-1.18.9-.53 1.03-.52 1.6.05Zm33.89.22c.66.68.63.71-.8.84-1.82.15-2.27-.2-1.24-.97.98-.73 1.2-.72 2.04.13ZM82.99 36c.2 2.1-1.68 2.89-2.6 1.1a2.22 2.22 0 0 1-.04-1.67c.27-.72.6-.9 1.44-.8.9.1 1.1.35 1.2 1.37Zm32.9-.36c.46 1.29-.88 2.92-1.9 2.3-.75-.48-1.11-1.85-.74-2.84.34-.92 2.25-.53 2.64.54Zm49.24-.6c.66.67.6 2.13-.13 2.74-.46.4-.83.4-1.58.06-1.58-.74-1.11-3.29.6-3.29.35 0 .85.22 1.11.48Zm7.5 0c1.35 1.36-.23 3.64-1.89 2.73-1.4-.76-.79-3.22.79-3.22.35 0 .84.22 1.1.48Zm26.14.11c1.16 1.42-.81 3.77-2.18 2.6-.59-.49-.8-2.44-.31-2.93.47-.48 2-.28 2.5.33Z" /></svg>