<svg class="fill-current logo" viewBox="0 0 112 43" xmlns="http://www.w3.org/2000/svg"><path fill-rule="evenodd" clip-rule="evenodd" d="M5 5h28.157v1.849h5V0H0v41.092h38.157v-6.849h-5v1.85H5V5z"></path><path d="M11.685 10.312h11.463v4.71h-6.327v3.575h6.1v4.71h-6.1v8.001h-5.136V10.312zM25.464 16.583c.284-.681.7-1.41 1.248-2.185a10.566 10.566 0 012.072-2.156c.85-.681 1.844-1.24 2.979-1.674 1.154-.435 2.468-.653 3.944-.653 1.608 0 3.092.293 4.454.88 1.362.586 2.535 1.38 3.519 2.383.983.984 1.75 2.137 2.298 3.462.548 1.324.823 2.714.823 4.17 0 1.457-.275 2.847-.823 4.171a10.876 10.876 0 01-2.298 3.49c-.984.984-2.157 1.769-3.519 2.355-1.362.586-2.856.88-4.483.88-1.645 0-3.149-.303-4.51-.908-1.363-.606-2.526-1.4-3.49-2.384a10.977 10.977 0 01-2.242-3.404c-.53-1.287-.795-2.601-.795-3.944 0-.7.057-1.428.17-2.185a9.787 9.787 0 01.653-2.298zm4.54 4.17c0 .814.132 1.599.397 2.356a6.46 6.46 0 001.135 1.986 6.275 6.275 0 001.816 1.39c.719.34 1.532.51 2.44.51.946 0 1.768-.189 2.468-.567a5.466 5.466 0 001.76-1.504 6.27 6.27 0 001.05-1.986 6.467 6.467 0 00.368-2.1c0-.68-.123-1.38-.369-2.099a6.212 6.212 0 00-1.05-2.014 5.04 5.04 0 00-1.759-1.504c-.718-.397-1.56-.596-2.525-.596-.927 0-1.75.18-2.468.54a5.615 5.615 0 00-1.816 1.418 6.317 6.317 0 00-1.078 1.986 6.708 6.708 0 00-.37 2.185zM49.761 10.312h5.363v9.449h.056l5.93-9.449h5.618l-6.951 10.47 7.405 10.526h-6.27L55.18 22.23h-.057v9.08H49.76V10.311zM74.071 10.312v12.683c0 .36.019.776.057 1.248.038.454.142.89.312 1.306.17.397.435.737.794 1.021.379.284.899.426 1.56.426.663 0 1.174-.123 1.533-.37.36-.264.624-.595.794-.992.17-.398.265-.832.284-1.305.038-.473.057-.918.057-1.334V10.312h5.362v12.683c0 .89-.047 1.665-.141 2.327a7.984 7.984 0 01-.426 1.702c-.17.492-.388.936-.653 1.334-.245.378-.539.737-.88 1.078a7.598 7.598 0 01-2.468 1.674c-.964.397-2.1.596-3.404.596-.379 0-.833-.029-1.362-.085-.511-.057-1.04-.161-1.59-.313a10.092 10.092 0 01-1.645-.68 6.02 6.02 0 01-1.447-1.164 10.541 10.541 0 01-1.078-1.362 6.742 6.742 0 01-.624-1.418 8.173 8.173 0 01-.312-1.618 22.402 22.402 0 01-.085-2.07V10.311h5.362zM96.316 16.44a24.14 24.14 0 00-.142-.595 1.75 1.75 0 00-.256-.68 1.418 1.418 0 00-.567-.54c-.227-.151-.549-.227-.965-.227a1.99 1.99 0 00-1.276.454c-.379.303-.568.7-.568 1.192 0 .321.047.586.142.794.094.208.293.426.596.653.321.208.766.454 1.333.737.568.265 1.324.606 2.27 1.022.984.435 1.788.88 2.412 1.333.643.454 1.144.927 1.504 1.419.378.492.633 1.012.766 1.56.151.53.227 1.098.227 1.703 0 .775-.123 1.551-.369 2.326a5.41 5.41 0 01-1.22 2.043c-.568.606-1.324 1.107-2.27 1.504-.927.378-2.08.568-3.462.568-1.513 0-2.761-.218-3.745-.653-.983-.454-1.759-1.012-2.326-1.674a5.798 5.798 0 01-1.192-2.156 8.45 8.45 0 01-.312-2.185v-.681h5.334c0 .605.076 1.097.227 1.475.17.379.369.672.596.88.246.208.492.35.737.425.246.057.454.086.625.086.643 0 1.144-.208 1.503-.624.36-.436.54-.899.54-1.39 0-.341-.067-.634-.2-.88-.113-.246-.33-.473-.652-.681-.302-.208-.718-.426-1.248-.653-.53-.246-1.201-.539-2.015-.88-.378-.15-.86-.359-1.447-.624a8.82 8.82 0 01-1.674-1.106 6.583 6.583 0 01-1.418-1.76c-.398-.7-.596-1.541-.596-2.525 0-.983.217-1.853.653-2.61a6.278 6.278 0 011.702-1.958c.7-.53 1.485-.927 2.355-1.191a8.464 8.464 0 012.638-.426c1.04 0 2.072.199 3.093.596a5.95 5.95 0 012.582 1.787c.303.379.539.757.709 1.135.19.36.332.72.426 1.079.095.34.151.671.17.992.038.322.067.634.085.937h-5.305zM107.623 25.438l3.389 5.87h-6.779l3.39-5.87zM46.189 38.548c0 .209-.02.411-.059.607a1.7 1.7 0 01-.196.528 1.04 1.04 0 01-.371.362c-.15.092-.34.137-.568.137-.215 0-.401-.045-.558-.137a1.378 1.378 0 01-.381-.372 1.731 1.731 0 01-.215-.528 2.573 2.573 0 01-.069-.587c0-.209.02-.408.059-.597.045-.195.114-.368.205-.518.098-.15.225-.27.382-.362.156-.092.349-.137.577-.137.228 0 .418.045.568.137.15.091.27.212.362.362.097.143.166.313.205.509.04.189.059.388.059.596zm.02 1.898v.646h1.32v-6.986h-1.39v2.544h-.019a1.454 1.454 0 00-.645-.557 1.916 1.916 0 00-.852-.196c-.371 0-.698.075-.978.225-.28.143-.515.336-.705.577a2.68 2.68 0 00-.42.842c-.092.313-.137.639-.137.978 0 .352.045.691.137 1.017.098.327.238.617.42.871.19.248.428.447.715.597.287.144.62.215.998.215.332 0 .63-.058.89-.176.267-.124.483-.323.646-.597h.02zM51.984 38.02h-2.26c.006-.098.026-.209.059-.333.039-.124.1-.241.185-.352.092-.11.21-.202.353-.274.15-.078.336-.117.557-.117.34 0 .59.091.754.274.17.182.287.45.352.802zm-2.26.88h3.65a3.568 3.568 0 00-.099-1.125 2.704 2.704 0 00-.45-.958 2.155 2.155 0 00-.782-.666c-.32-.17-.695-.254-1.126-.254-.384 0-.736.068-1.056.205a2.465 2.465 0 00-.812.568 2.427 2.427 0 00-.529.841 2.951 2.951 0 00-.185 1.057c0 .391.058.75.176 1.076.124.326.296.607.518.842.222.234.493.417.812.547.32.124.679.186 1.076.186.575 0 1.064-.13 1.468-.391.404-.261.705-.695.9-1.301h-1.223c-.045.156-.17.306-.371.45a1.26 1.26 0 01-.724.205c-.392 0-.692-.1-.9-.303-.21-.202-.324-.528-.343-.978zM55.273 39.448h-1.32c.013.34.088.623.225.852.143.221.323.4.538.538.222.137.473.234.753.293a4.19 4.19 0 001.703 0c.28-.052.528-.147.743-.284.215-.136.388-.316.519-.538.137-.228.205-.508.205-.841a1.15 1.15 0 00-.499-.988 1.849 1.849 0 00-.518-.264 5.536 5.536 0 00-.587-.167 24.009 24.009 0 00-.578-.127 5.793 5.793 0 01-.508-.127 1.13 1.13 0 01-.353-.196.38.38 0 01-.137-.303c0-.104.026-.186.079-.245a.502.502 0 01.186-.146.806.806 0 01.254-.06c.091-.012.176-.019.254-.019.248 0 .463.05.646.147.183.091.284.27.303.538h1.321c-.026-.313-.108-.57-.244-.773a1.522 1.522 0 00-.5-.499 2.108 2.108 0 00-.694-.264 4.08 4.08 0 00-1.595 0c-.26.046-.496.13-.704.255-.209.117-.379.28-.509.489-.124.209-.186.476-.186.802 0 .222.046.41.137.568.091.15.212.277.362.381.15.098.32.18.509.245.195.058.394.11.597.156.495.104.88.209 1.154.313.28.105.42.261.42.47 0 .124-.029.228-.087.313a.728.728 0 01-.225.196 1.192 1.192 0 01-.597.137c-.137 0-.27-.017-.401-.05a1.098 1.098 0 01-.333-.146.948.948 0 01-.245-.264.825.825 0 01-.087-.392zM60.88 35.251v-1.145h-1.389v1.145h1.39zm-1.389.783v5.058h1.39v-5.058h-1.39zM64.333 39.898a.984.984 0 01-.538-.137 1.134 1.134 0 01-.353-.352 1.632 1.632 0 01-.186-.48 3.113 3.113 0 01-.049-.547c0-.19.02-.368.06-.538.045-.176.113-.33.205-.46.097-.137.215-.245.352-.323.143-.078.313-.117.509-.117.228 0 .417.042.567.127.15.085.27.199.362.342.091.144.157.31.196.5a2.8 2.8 0 01.058.586c0 .183-.026.36-.078.529a1.32 1.32 0 01-.215.44c-.098.13-.222.235-.372.313-.15.078-.323.117-.518.117zm2.504.871v-4.735h-1.32v.675h-.02c-.17-.294-.382-.502-.636-.626a1.925 1.925 0 00-.87-.186c-.353 0-.666.068-.94.205a2 2 0 00-.675.558 2.474 2.474 0 00-.42.802c-.092.3-.138.613-.138.94 0 .345.04.675.117.988.085.306.216.577.392.812.176.228.401.41.675.548.274.13.6.195.978.195.307 0 .597-.062.871-.185.28-.131.496-.33.646-.597h.02v.665c.006.359-.082.655-.265.89-.176.235-.46.352-.85.352-.249 0-.467-.052-.657-.156-.189-.098-.316-.277-.381-.538h-1.38c.02.287.098.531.235.734.144.208.32.378.529.508.215.13.45.225.704.284.26.065.515.098.763.098.58 0 1.044-.078 1.39-.235.345-.156.61-.349.792-.577.183-.222.3-.463.352-.724.059-.261.088-.493.088-.695zM67.956 36.034v5.058h1.39v-2.651c0-.516.084-.884.254-1.106.17-.228.443-.342.821-.342.333 0 .564.104.695.313.13.202.196.512.196.93v2.856H72.7v-3.111c0-.313-.03-.597-.088-.851a1.543 1.543 0 00-.284-.656 1.3 1.3 0 00-.567-.42c-.235-.105-.538-.157-.91-.157-.294 0-.58.068-.861.205-.28.13-.509.343-.685.636h-.03v-.704h-1.32z"></path></svg>