<svg viewBox="0 0 124 35" fill="none" xmlns="http://www.w3.org/2000/svg"><path d="M4.74 3.22v31.77H.06V3.22h4.68ZM24.6 34.98h-5.72L12.16 15v19.97H7.5V3.22h5.67l6.72 19.96V3.22h4.72v31.76ZM27.34 3.22h8.55c3.46 0 6.15 1.45 7.51 4.09a9.35 9.35 0 0 1 1.05 3.86v15.88a7.44 7.44 0 0 1-4.4 7c-1.94.9-3.97.95-4.16.95h-8.55V3.22Zm4.68 27.81h3.7a3.99 3.99 0 0 0 4.02-4V11.16c0-.72-.48-3.94-3.83-3.94h-3.89v23.82ZM51.87 7.21v9.88h7.7v4h-7.7v9.93h10.35v3.94H47.2V3.22h15.03V7.2H51.87ZM75.88 19.1 82.68 35h-5.05L73.33 25l-4.25 9.98h-5.06l6.8-15.89-6.8-15.88h5.06l4.25 9.98c1.42-3.36 2.9-6.63 4.3-9.98h5.06l-6.8 15.88ZM89.27 7.21v9.88h7.7v4h-7.7v9.93H99.6v3.94H84.6V3.22h15.03V7.2H89.26ZM115.44 26.83v-16.3c0-.74-.48-4.04-3.88-4.04h-3.93v24.44h3.74a4.08 4.08 0 0 0 4.07-4.1Z" /><path d="M103.02.05V2.4h8.54c3.5 0 6.23 1.48 7.61 4.19 1.01 2 1.06 3.77 1.06 3.96v16.3a7.64 7.64 0 0 1-4.45 7.17 11.1 11.1 0 0 1-4.22.98h12.42V.05h-20.96Z" /></svg>