<svg viewBox="0 0 335 71" fill="none" xmlns="http://www.w3.org/2000/svg"><path d="M1.68.4h16.16v6.64H8.92v5.04h8.6v6.64h-8.6V30H1.68V.4ZM21.63.4h6.64V30h-6.64V.4ZM54.48 23.04a12.53 12.53 0 0 1-4.52 5.68 10.6 10.6 0 0 1-6.32 2c-1.6 0-3.1-.3-4.52-.88a12.41 12.41 0 0 1-3.76-2.52 12.5 12.5 0 0 1-2.56-3.72 12.26 12.26 0 0 1-.08-9.12 12.06 12.06 0 0 1 6.12-6.44 11 11 0 0 1 4.68-1c1.68 0 3.24.32 4.68.96 1.44.61 2.68 1.47 3.72 2.56a12.6 12.6 0 0 1 3.16 10.36H38.44c.21 1.33.8 2.37 1.76 3.12a5.68 5.68 0 0 0 3.44 1.08 4.4 4.4 0 0 0 2.44-.6 6.5 6.5 0 0 0 1.6-1.48h6.8Zm-5.88-6.6c-.08-.32-.23-.7-.44-1.12a3.94 3.94 0 0 0-.88-1.28c-.4-.4-.9-.73-1.52-1a5.5 5.5 0 0 0-2.2-.4 5.5 5.5 0 0 0-2.2.4 4.86 4.86 0 0 0-2.44 2.28c-.19.43-.32.8-.4 1.12H48.6ZM58.94 7.8h6.2v2.36h.08c.13-.24.33-.53.6-.88.27-.35.63-.68 1.08-1a6.66 6.66 0 0 1 1.8-.88 8.42 8.42 0 0 1 4.2-.2c.59.1 1.16.3 1.72.6a7.35 7.35 0 0 1 3.12 3.2 9.51 9.51 0 0 1 2.76-2.8 7.49 7.49 0 0 1 4.28-1.16c.4 0 .84.03 1.32.08a7.76 7.76 0 0 1 4.52 2.16c.5.56.92 1.1 1.24 1.6.32.48.56 1.04.72 1.68.19.64.3 1.39.36 2.24.05.83.08 1.85.08 3.08V30h-6.64V18.2c0-.45-.03-.96-.08-1.52a4.4 4.4 0 0 0-.36-1.6c-.21-.5-.55-.93-1-1.28a3.18 3.18 0 0 0-1.96-.52 3.6 3.6 0 0 0-2.16.56c-.48.35-.84.77-1.08 1.28-.21.5-.35 1.01-.4 1.52-.03.5-.04.92-.04 1.24V30h-6.64V17.92c0-.3-.03-.7-.08-1.2a4.58 4.58 0 0 0-.36-1.56c-.19-.5-.5-.95-.96-1.32a2.94 2.94 0 0 0-1.92-.56c-.93 0-1.65.2-2.16.6-.5.37-.88.83-1.12 1.36a5.17 5.17 0 0 0-.44 1.64c-.03.56-.04 1-.04 1.32V30h-6.64V7.8ZM97.69 7.8h6.2v2.36h.08c.13-.24.33-.53.6-.88.27-.35.63-.68 1.08-1a6.66 6.66 0 0 1 1.8-.88 8.42 8.42 0 0 1 4.2-.2 6 6 0 0 1 1.72.6 7.34 7.34 0 0 1 3.12 3.2 9.53 9.53 0 0 1 2.76-2.8 7.49 7.49 0 0 1 4.28-1.16c.4 0 .84.03 1.32.08a7.75 7.75 0 0 1 4.52 2.16c.5.56.92 1.1 1.24 1.6.32.48.56 1.04.72 1.68.19.64.3 1.39.36 2.24.05.83.08 1.85.08 3.08V30h-6.64V18.2c0-.45-.03-.96-.08-1.52a4.37 4.37 0 0 0-.36-1.6 3.1 3.1 0 0 0-1-1.28 3.18 3.18 0 0 0-1.96-.52 3.6 3.6 0 0 0-2.16.56c-.48.35-.84.77-1.08 1.28-.21.5-.35 1.01-.4 1.52-.03.5-.04.92-.04 1.24V30h-6.64V17.92c0-.3-.03-.7-.08-1.2a4.55 4.55 0 0 0-.36-1.56c-.19-.5-.5-.95-.96-1.32a2.94 2.94 0 0 0-1.92-.56c-.93 0-1.65.2-2.16.6-.5.37-.88.83-1.12 1.36a5.19 5.19 0 0 0-.44 1.64c-.03.56-.04 1-.04 1.32V30h-6.64V7.8ZM143.08 30h-6.64V7.8h6.64V30Zm0-24.56h-6.64V.4h6.64v5.04ZM147.88 7.8h6.2v2.36h.08c.16-.27.38-.57.65-.92a5.26 5.26 0 0 1 2.88-1.84 9.3 9.3 0 0 1 5.68.2 7.7 7.7 0 0 1 2.51 1.36 7.92 7.92 0 0 1 1.72 2.32c.25.56.44 1.24.6 2.04.17.77.25 1.7.25 2.8V30h-6.64V17.88c0-.4-.03-.85-.09-1.36a4.24 4.24 0 0 0-.35-1.52 2.8 2.8 0 0 0-1.05-1.2 3.26 3.26 0 0 0-2-.52c-.95 0-1.69.19-2.2.56-.5.35-.88.77-1.12 1.28-.24.48-.38.99-.44 1.52l-.03 1.28V30h-6.65V7.8ZM196.16 27.32c0 1.65-.1 3.05-.28 4.2a8.63 8.63 0 0 1-1.04 3.12 10.64 10.64 0 0 1-4.2 3.68c-.96.48-2.04.85-3.24 1.12-1.18.3-2.44.44-3.8.44-1.92 0-3.56-.27-4.92-.8a10.68 10.68 0 0 1-3.36-1.92 8.33 8.33 0 0 1-2-2.52c-.43-.9-.7-1.76-.8-2.56h7.68a3.18 3.18 0 0 0 2.12 1.92 4.69 4.69 0 0 0 1.76.28c.21 0 .61-.04 1.2-.12a4.8 4.8 0 0 0 3.48-2.48c.48-.8.72-1.95.72-3.44v-.68h-.08c-.16.32-.41.67-.76 1.04-.32.37-.73.72-1.24 1.04a7.62 7.62 0 0 1-4.08 1.08c-1.52 0-2.96-.27-4.32-.8a11.37 11.37 0 0 1-3.56-2.36 11.52 11.52 0 0 1-3.32-8.52c0-1.9.3-3.57.92-5.04a11.5 11.5 0 0 1 2.52-3.76 10.52 10.52 0 0 1 3.56-2.36 11.4 11.4 0 0 1 4.2-.8 9.1 9.1 0 0 1 3.52.68 5.4 5.4 0 0 1 2.6 2.12h.08V7.8h6.64v19.52Zm-17.4-8.52a5.96 5.96 0 0 0 1.6 4.2c.5.48 1.08.85 1.72 1.12a5.87 5.87 0 0 0 4.2 0 5.06 5.06 0 0 0 2.84-2.88c.26-.7.4-1.44.4-2.24a6.01 6.01 0 0 0-1.6-4.16 5.35 5.35 0 0 0-8.72 1.76 5.4 5.4 0 0 0-.44 2.2ZM213.52.4h9.72l5.88 19.48h.08L235 .4h9.76V30h-6.96l.24-22.16-.08-.08L231.64 30h-5l-6.32-22.24-.08.08.24 22.16h-6.96V.4ZM271.24 23.04a12.55 12.55 0 0 1-4.52 5.68c-1.87 1.33-3.98 2-6.32 2a11.67 11.67 0 0 1-11.76-11.76c0-1.55.28-3.04.84-4.48a12.05 12.05 0 0 1 6.12-6.44 11 11 0 0 1 4.68-1c1.68 0 3.24.32 4.68.96 1.44.61 2.68 1.47 3.72 2.56a12.6 12.6 0 0 1 3.16 10.36H255.2c.21 1.33.8 2.37 1.76 3.12a5.68 5.68 0 0 0 3.44 1.08c1.01 0 1.82-.2 2.44-.6a6.5 6.5 0 0 0 1.6-1.48h6.8Zm-5.88-6.6c-.08-.32-.23-.7-.44-1.12a3.94 3.94 0 0 0-.88-1.28c-.4-.4-.9-.73-1.52-1a5.5 5.5 0 0 0-2.2-.4 5.5 5.5 0 0 0-2.2.4 4.85 4.85 0 0 0-2.44 2.28c-.19.43-.32.8-.4 1.12h10.08ZM295.44 7.8l-11.12 29.6h-7.04l3.52-8.52-8.24-21.08h7.08l4.44 12.88h.08L288.4 7.8h7.04ZM318.5 23.04a12.5 12.5 0 0 1-4.52 5.68 10.6 10.6 0 0 1-6.32 2c-1.6 0-3.1-.3-4.52-.88a12.43 12.43 0 0 1-3.76-2.52 12.52 12.52 0 0 1-2.56-3.72 12.26 12.26 0 0 1-.08-9.12 12.06 12.06 0 0 1 6.12-6.44 11 11 0 0 1 4.68-1c1.68 0 3.24.32 4.68.96 1.44.61 2.68 1.47 3.72 2.56a12.58 12.58 0 0 1 3.16 10.36h-16.64c.22 1.33.8 2.37 1.76 3.12a5.68 5.68 0 0 0 3.44 1.08 4.4 4.4 0 0 0 2.44-.6c.62-.4 1.15-.9 1.6-1.48h6.8Zm-5.88-6.6a5.6 5.6 0 0 0-.44-1.12 3.93 3.93 0 0 0-.88-1.28c-.4-.4-.9-.73-1.52-1a5.5 5.5 0 0 0-2.2-.4 5.5 5.5 0 0 0-2.2.4 4.86 4.86 0 0 0-2.44 2.28c-.18.43-.32.8-.4 1.12h10.08ZM322.92 7.8h6.24v2.36h.08c.14-.27.32-.57.56-.92a4.37 4.37 0 0 1 2.56-1.84 7.24 7.24 0 0 1 2.44-.36v6.68c-.77.03-1.48.1-2.12.2-.64.1-1.2.3-1.68.6-.45.3-.81.7-1.08 1.24a5 5 0 0 0-.36 2.04V30h-6.64V7.8Z" /><path d="M0 49.58 4.55 66h1.7l4.15-14.7h.04L14.61 66h1.65l4.53-16.42h-1.56l-3.75 14.37h-.05l-4.02-14.37H9.45l-4 14.37h-.04L1.68 49.58H0ZM30.37 59.24H22.7c.06-.54.19-1.06.37-1.57.2-.52.46-.97.78-1.35A3.5 3.5 0 0 1 26.6 55a3.5 3.5 0 0 1 2.74 1.31 5.02 5.02 0 0 1 1.04 2.92Zm-7.68 1.22h9.13a9.27 9.27 0 0 0-.23-2.44 6 6 0 0 0-.92-2.14 4.7 4.7 0 0 0-1.63-1.52 4.86 4.86 0 0 0-2.44-.57 5.1 5.1 0 0 0-2.44.55c-.67.35-1.22.83-1.65 1.42a6.22 6.22 0 0 0-.97 2 9.56 9.56 0 0 0 0 4.72c.22.75.54 1.42.97 2 .43.57.98 1.02 1.65 1.36.7.32 1.5.48 2.44.48 1.5 0 2.66-.37 3.48-1.1a5.75 5.75 0 0 0 1.7-3.13h-1.45a4.36 4.36 0 0 1-1.24 2.2c-.6.56-1.43.84-2.49.84a3.4 3.4 0 0 1-1.77-.44c-.49-.3-.9-.66-1.22-1.1a4.64 4.64 0 0 1-.71-1.5 6.9 6.9 0 0 1-.2-1.63ZM33.77 49.58V66h1.33v-2.25h.05c.34.82.88 1.46 1.63 1.9.77.45 1.63.67 2.6.67.9 0 1.69-.16 2.35-.48a4.86 4.86 0 0 0 1.68-1.36c.44-.58.77-1.25.98-2a8.92 8.92 0 0 0 0-4.8 5.7 5.7 0 0 0-.98-2 4.75 4.75 0 0 0-4.03-1.9c-.43 0-.86.06-1.29.17-.43.1-.83.27-1.2.5a3.54 3.54 0 0 0-1.63 1.93h-.04v-6.8h-1.45Zm9.5 10.49c0 .6-.08 1.22-.23 1.84-.14.6-.37 1.13-.7 1.6-.3.48-.7.87-1.19 1.18-.49.29-1.08.44-1.77.44-.77 0-1.42-.15-1.95-.44-.53-.3-.95-.7-1.3-1.17a5.1 5.1 0 0 1-.7-1.61 8.36 8.36 0 0 1 0-3.66c.15-.61.39-1.16.7-1.63A3.88 3.88 0 0 1 39.38 55c.7 0 1.3.15 1.78.46.5.29.9.67 1.2 1.15.32.47.55 1.02.69 1.63.15.6.23 1.2.23 1.82ZM57.42 66V49.58h-1.45v6.8h-.05a3.76 3.76 0 0 0-1.63-1.93 5.11 5.11 0 0 0-2.48-.67 4.81 4.81 0 0 0-4.02 1.89 5.69 5.69 0 0 0-1 2 8.92 8.92 0 0 0 0 4.8c.22.76.55 1.43 1 2.01.44.57.99 1.02 1.65 1.36a5.45 5.45 0 0 0 4.9-.2 4.43 4.43 0 0 0 1.7-1.9h.04V66h1.34Zm-9.5-5.93c0-.62.07-1.22.2-1.82a5.4 5.4 0 0 1 .7-1.63 3.8 3.8 0 0 1 1.21-1.15c.5-.31 1.09-.46 1.78-.46a3.75 3.75 0 0 1 3.22 1.6c.33.48.57 1.03.7 1.64a7.29 7.29 0 0 1 0 3.66 4.5 4.5 0 0 1-.7 1.6 3.8 3.8 0 0 1-1.3 1.18c-.51.29-1.16.44-1.92.44a3.4 3.4 0 0 1-1.78-.44c-.49-.3-.9-.7-1.21-1.17a5.43 5.43 0 0 1-.7-1.61 8.36 8.36 0 0 1-.2-1.84ZM68.72 59.24h-7.69c.07-.54.19-1.06.37-1.57.2-.52.46-.97.78-1.35A3.5 3.5 0 0 1 64.94 55a3.5 3.5 0 0 1 2.74 1.31 5.02 5.02 0 0 1 1.03 2.92Zm-7.69 1.22h9.13a9.27 9.27 0 0 0-.23-2.44 6 6 0 0 0-.92-2.14 4.7 4.7 0 0 0-1.63-1.52 4.86 4.86 0 0 0-2.44-.57 5.1 5.1 0 0 0-2.43.55c-.68.35-1.23.83-1.66 1.42a6.22 6.22 0 0 0-.97 2 9.56 9.56 0 0 0 0 4.72c.22.75.54 1.42.97 2 .43.57.98 1.02 1.66 1.36.69.32 1.5.48 2.43.48 1.5 0 2.66-.37 3.48-1.1a5.75 5.75 0 0 0 1.7-3.13h-1.45a4.36 4.36 0 0 1-1.24 2.2c-.6.56-1.43.84-2.49.84a3.4 3.4 0 0 1-1.77-.44c-.49-.3-.9-.66-1.22-1.1a4.65 4.65 0 0 1-.7-1.5 6.9 6.9 0 0 1-.22-1.63ZM79.22 57.6h1.45a4.3 4.3 0 0 0-.4-1.67 3.7 3.7 0 0 0-2.3-1.9 5.69 5.69 0 0 0-1.65-.24 7.1 7.1 0 0 0-1.59.18c-.52.12-1 .32-1.42.58-.43.26-.79.6-1.06 1.03-.26.43-.4.94-.4 1.54 0 .5.1.94.26 1.29.17.34.4.63.69.87a5 5 0 0 0 1.06.6c.4.16.83.3 1.3.42l1.87.41c.32.08.64.17.94.28.33.1.61.24.86.41.24.15.43.35.57.6.15.23.23.52.23.87 0 .42-.1.77-.32 1.06-.2.28-.46.5-.78.69a3.5 3.5 0 0 1-1.06.4c-.37.07-.73.1-1.08.1-.97 0-1.78-.24-2.44-.73-.64-.5-1-1.25-1.06-2.23h-1.45c.13 1.46.62 2.51 1.47 3.17.88.66 2.01 1 3.4 1 .56 0 1.12-.07 1.69-.2a4.76 4.76 0 0 0 1.52-.59c.46-.3.83-.66 1.12-1.1.3-.46.44-1.02.44-1.66A2.9 2.9 0 0 0 80 60.46a5 5 0 0 0-2.3-.97l-1.93-.44c-.25-.06-.52-.13-.8-.23-.3-.1-.57-.23-.81-.39a2.4 2.4 0 0 1-.62-.55c-.16-.23-.23-.5-.23-.83 0-.38.08-.7.25-.96.17-.26.39-.47.67-.62.27-.17.57-.29.9-.35a4.45 4.45 0 0 1 2.15.05 2.57 2.57 0 0 1 1.66 1.28c.17.33.26.71.28 1.15ZM83.2 49.58v2.32h1.45v-2.32h-1.44Zm0 4.55V66h1.45V54.13h-1.44ZM97.46 65.03v-10.9H96v2.05h-.05a4.03 4.03 0 0 0-1.45-1.68 4.05 4.05 0 0 0-2.32-.71c-.86 0-1.63.16-2.3.48-.66.3-1.22.74-1.68 1.29a5.86 5.86 0 0 0-1.04 1.9 7.52 7.52 0 0 0-.34 2.3c0 .85.1 1.65.3 2.4a4.74 4.74 0 0 0 2.62 3.24c.68.3 1.49.46 2.44.46a3.9 3.9 0 0 0 2.28-.67 4.2 4.2 0 0 0 1.5-1.77H96v1.61a5.3 5.3 0 0 1-.9 3.32c-.6.76-1.57 1.15-2.92 1.15a5 5 0 0 1-2.23-.53 2.57 2.57 0 0 1-1.24-1.84h-1.45c.04.63.21 1.16.5 1.6.3.47.69.84 1.13 1.13.46.3.97.51 1.54.65.57.14 1.15.2 1.75.2.96 0 1.78-.13 2.44-.39a3.95 3.95 0 0 0 2.53-2.92c.2-.7.3-1.5.3-2.37Zm-5.27-.39c-.68 0-1.26-.13-1.75-.39a3.88 3.88 0 0 1-1.93-2.57 6.67 6.67 0 0 1-.23-1.75c0-.62.07-1.21.2-1.8.16-.6.4-1.12.72-1.58.32-.46.73-.83 1.22-1.1a3.4 3.4 0 0 1 1.77-.44c.69 0 1.27.14 1.75.43.49.3.89.68 1.2 1.15.3.48.52 1 .66 1.59.14.58.2 1.17.2 1.75a6.1 6.1 0 0 1-.96 3.26 3.39 3.39 0 0 1-2.85 1.45ZM100.19 54.13V66h1.44v-6.92c.02-.59.11-1.12.28-1.61.18-.5.43-.94.74-1.3a3.65 3.65 0 0 1 2.71-1.17c.58 0 1.07.1 1.45.28.4.19.71.44.94.76.23.32.4.7.48 1.15.1.43.14.9.14 1.4V66h1.45v-7.64c0-.7-.07-1.34-.2-1.9a3.23 3.23 0 0 0-2.07-2.35 5.75 5.75 0 0 0-2.08-.32c-.84 0-1.61.22-2.32.66-.7.43-1.2 1-1.47 1.73h-.05v-2.05h-1.44ZM121.1 59.24h-7.69c.06-.54.19-1.06.37-1.57.2-.52.46-.97.78-1.35a3.5 3.5 0 0 1 2.76-1.31 3.5 3.5 0 0 1 2.74 1.31 5.04 5.04 0 0 1 1.03 2.92Zm-7.69 1.22h9.13a9.3 9.3 0 0 0-.23-2.44 6 6 0 0 0-.92-2.14 4.71 4.71 0 0 0-1.63-1.52 4.86 4.86 0 0 0-2.44-.57 5.1 5.1 0 0 0-2.43.55c-.68.35-1.23.83-1.66 1.42a6.2 6.2 0 0 0-.97 2 9.53 9.53 0 0 0 0 4.72c.22.75.54 1.42.97 2 .43.57.98 1.02 1.66 1.36.69.32 1.5.48 2.43.48a5 5 0 0 0 3.48-1.1 5.75 5.75 0 0 0 1.7-3.13h-1.45a4.36 4.36 0 0 1-1.24 2.2c-.6.56-1.43.84-2.49.84a3.4 3.4 0 0 1-1.77-.44c-.49-.3-.9-.66-1.22-1.1a4.64 4.64 0 0 1-.71-1.5 6.9 6.9 0 0 1-.2-1.63ZM124.49 54.13V66h1.45v-6.33a4.5 4.5 0 0 1 1.22-3.1 4.25 4.25 0 0 1 3.2-1.15v-1.45c-1.08-.05-2 .2-2.79.71a4.58 4.58 0 0 0-1.7 2.23h-.05v-2.78h-1.33ZM143.16 55a3.67 3.67 0 0 1 3.1 1.6 6.22 6.22 0 0 1 .78 5.34c-.16.59-.42 1.12-.78 1.6a3.67 3.67 0 0 1-3.1 1.59c-.7 0-1.3-.15-1.82-.44a4.1 4.1 0 0 1-1.3-1.15 5.6 5.6 0 0 1-1.04-3.47c0-.63.08-1.25.25-1.84.18-.62.44-1.16.78-1.64a4.1 4.1 0 0 1 1.31-1.15c.52-.29 1.13-.43 1.82-.43Zm0-1.21c-.9 0-1.71.17-2.42.5-.69.34-1.27.8-1.74 1.36a5.84 5.84 0 0 0-1.09 2 7.93 7.93 0 0 0 0 4.85c.25.76.61 1.41 1.09 1.98a5.26 5.26 0 0 0 1.74 1.36c.7.32 1.51.48 2.42.48a5.21 5.21 0 0 0 4.16-1.84 5.9 5.9 0 0 0 1.08-1.98 7.96 7.96 0 0 0 0-4.85 5.87 5.87 0 0 0-1.08-2 5.21 5.21 0 0 0-4.16-1.86ZM160.95 65.03v-10.9h-1.45v2.05h-.04A4.02 4.02 0 0 0 158 54.5a4.05 4.05 0 0 0-2.32-.71c-.86 0-1.63.16-2.3.48-.66.3-1.22.74-1.68 1.29a5.85 5.85 0 0 0-1.04 1.9 7.52 7.52 0 0 0-.34 2.3c0 .85.1 1.65.3 2.4a4.74 4.74 0 0 0 2.62 3.24c.67.3 1.49.46 2.44.46a3.9 3.9 0 0 0 2.27-.67 4.2 4.2 0 0 0 1.5-1.77h.04v1.61a5.3 5.3 0 0 1-.9 3.32c-.6.76-1.56 1.15-2.91 1.15a5 5 0 0 1-2.23-.53 2.57 2.57 0 0 1-1.24-1.84h-1.46c.05.63.22 1.16.51 1.6.3.47.68.84 1.13 1.13.46.3.97.51 1.54.65.56.14 1.15.2 1.75.2.96 0 1.78-.13 2.43-.39a3.95 3.95 0 0 0 2.53-2.92c.2-.7.3-1.5.3-2.37Zm-5.26-.39c-.68 0-1.26-.13-1.75-.39a3.88 3.88 0 0 1-1.93-2.57 6.68 6.68 0 0 1-.23-1.75c0-.62.06-1.21.2-1.8.16-.6.4-1.12.72-1.58.32-.46.72-.83 1.22-1.1.49-.3 1.08-.44 1.77-.44s1.27.14 1.74.43c.5.3.9.68 1.2 1.15.3.48.53 1 .67 1.59.13.58.2 1.17.2 1.75a6.09 6.09 0 0 1-.96 3.26 3.39 3.39 0 0 1-2.85 1.45ZM174.68 55.35v-1.22h-2.34V53.1c0-.33 0-.62.02-.9s.07-.51.16-.71c.1-.22.27-.39.48-.5.22-.13.53-.2.93-.2a9.1 9.1 0 0 1 1.06.12v-1.24a12.69 12.69 0 0 0-1.23-.1 3.6 3.6 0 0 0-1.44.26c-.37.17-.66.4-.88.71-.21.31-.36.68-.44 1.1-.07.44-.11.9-.11 1.41v1.08h-2.02v1.22h2.02V66h1.45V55.35h2.34ZM176.06 54.13V66h1.45v-6.33a4.48 4.48 0 0 1 1.22-3.1 4.25 4.25 0 0 1 3.2-1.15v-1.45c-1.08-.05-2 .2-2.79.71a4.58 4.58 0 0 0-1.7 2.23h-.05v-2.78h-1.33ZM187.92 55a3.66 3.66 0 0 1 3.1 1.6 6.22 6.22 0 0 1 .78 5.34 4.9 4.9 0 0 1-.77 1.6 3.66 3.66 0 0 1-3.1 1.59c-.7 0-1.3-.15-1.82-.44-.53-.3-.96-.68-1.32-1.15a5.62 5.62 0 0 1-1.03-3.47c0-.63.09-1.25.25-1.84.19-.62.45-1.16.78-1.64.36-.47.8-.86 1.32-1.15.52-.29 1.12-.43 1.81-.43Zm0-1.21c-.9 0-1.7.17-2.41.5-.7.34-1.27.8-1.75 1.36a5.87 5.87 0 0 0-1.08 2 7.96 7.96 0 0 0 0 4.85c.25.76.6 1.41 1.08 1.98a5.27 5.27 0 0 0 1.75 1.36c.7.32 1.5.48 2.41.48a5.2 5.2 0 0 0 4.16-1.84c.48-.57.84-1.22 1.09-1.98a7.93 7.93 0 0 0 0-4.85 5.84 5.84 0 0 0-1.08-2 5.2 5.2 0 0 0-4.17-1.86ZM195.67 54.13V66h1.45v-6.92c.01-.59.1-1.12.27-1.61.19-.5.43-.94.74-1.3a3.65 3.65 0 0 1 2.71-1.17c.58 0 1.07.1 1.45.28.4.19.71.44.94.76.23.32.4.7.49 1.15.09.43.13.9.13 1.4V66h1.45v-7.64c0-.7-.06-1.34-.2-1.9a3.24 3.24 0 0 0-2.07-2.35 5.75 5.75 0 0 0-2.07-.32c-.85 0-1.62.22-2.33.66-.7.43-1.2 1-1.47 1.73h-.04v-2.05h-1.45ZM210.34 54.13v-3.56h-1.45v3.56h-2.07v1.22h2.07v8.12c-.01 1.01.17 1.71.56 2.1.38.36 1.05.55 2.02.55.22 0 .43-.01.64-.03l.65-.02v-1.22c-.42.05-.83.07-1.24.07-.53-.03-.86-.18-1-.44a2.82 2.82 0 0 1-.18-1.13v-8h2.42v-1.22h-2.42ZM223.38 59.24h-7.68c.06-.54.18-1.06.37-1.57.2-.52.46-.97.78-1.35a3.5 3.5 0 0 1 2.76-1.31 3.5 3.5 0 0 1 2.74 1.31 5.04 5.04 0 0 1 1.03 2.92Zm-7.68 1.22h9.13a9.3 9.3 0 0 0-.23-2.44 6 6 0 0 0-.92-2.14 4.71 4.71 0 0 0-1.63-1.52 4.86 4.86 0 0 0-2.44-.57 5.1 5.1 0 0 0-2.44.55c-.67.35-1.22.83-1.65 1.42a6.2 6.2 0 0 0-.97 2 9.53 9.53 0 0 0 0 4.72c.21.75.54 1.42.97 2 .42.57.98 1.02 1.65 1.36.7.32 1.5.48 2.44.48a5 5 0 0 0 3.47-1.1 5.75 5.75 0 0 0 1.7-3.13h-1.44a4.36 4.36 0 0 1-1.25 2.2c-.6.56-1.42.84-2.48.84a3.4 3.4 0 0 1-1.77-.44c-.5-.3-.9-.66-1.22-1.1a4.64 4.64 0 0 1-.71-1.5 6.9 6.9 0 0 1-.21-1.63ZM226.75 54.13V66h1.45v-6.92c.02-.59.1-1.12.28-1.61.18-.5.43-.94.73-1.3a3.65 3.65 0 0 1 2.71-1.17c.59 0 1.07.1 1.46.28.4.19.71.44.94.76.23.32.4.7.48 1.15.1.43.14.9.14 1.4V66h1.45v-7.64c0-.7-.07-1.34-.2-1.9a3.24 3.24 0 0 0-2.07-2.35 5.75 5.75 0 0 0-2.08-.32c-.84 0-1.61.22-2.32.66-.7.43-1.2 1-1.47 1.73h-.05v-2.05h-1.45ZM249.57 66V49.58h-1.45v6.8h-.04a3.76 3.76 0 0 0-1.63-1.93 5.11 5.11 0 0 0-2.48-.67 4.82 4.82 0 0 0-4.03 1.89 5.69 5.69 0 0 0-1 2 8.9 8.9 0 0 0 0 4.8c.22.76.55 1.43 1 2.01.44.57 1 1.02 1.65 1.36a5.45 5.45 0 0 0 4.9-.2 4.43 4.43 0 0 0 1.7-1.9h.05V66h1.33Zm-9.5-5.93c0-.62.07-1.22.2-1.82.16-.61.4-1.16.7-1.63a3.8 3.8 0 0 1 1.22-1.15c.49-.31 1.08-.46 1.77-.46a3.75 3.75 0 0 1 3.22 1.6c.34.48.57 1.03.71 1.64a7.3 7.3 0 0 1 0 3.66 4.5 4.5 0 0 1-.71 1.6 3.8 3.8 0 0 1-1.29 1.18c-.52.29-1.16.44-1.93.44-.7 0-1.28-.15-1.77-.44-.5-.3-.9-.7-1.22-1.17a5.42 5.42 0 0 1-.7-1.61 8.36 8.36 0 0 1-.2-1.84ZM268.35 66V54.13h-1.45v6.23c0 .6-.07 1.2-.2 1.78a4.81 4.81 0 0 1-.65 1.51c-.29.45-.66.8-1.1 1.09-.45.26-.98.39-1.61.39-1.15 0-1.96-.28-2.44-.83a3.91 3.91 0 0 1-.74-2.44v-7.73h-1.45v7.7c0 .71.08 1.34.23 1.9.16.55.4 1.01.72 1.4.33.38.76.67 1.28.87a5.2 5.2 0 0 0 1.94.32c.89 0 1.7-.2 2.41-.62a4.16 4.16 0 0 0 1.68-1.84h.05V66h1.33ZM281.53 66V49.58h-1.45v6.8h-.04a3.76 3.76 0 0 0-1.63-1.93 5.11 5.11 0 0 0-2.48-.67 4.82 4.82 0 0 0-4.02 1.89 5.69 5.69 0 0 0-1 2 8.9 8.9 0 0 0 0 4.8c.21.76.54 1.43.99 2.01.44.57 1 1.02 1.65 1.36a5.45 5.45 0 0 0 4.9-.2 4.43 4.43 0 0 0 1.7-1.9h.05V66h1.33Zm-9.5-5.93c0-.62.07-1.22.21-1.82.15-.61.38-1.16.7-1.63a3.8 3.8 0 0 1 1.21-1.15c.5-.31 1.08-.46 1.77-.46a3.75 3.75 0 0 1 3.22 1.6c.34.48.58 1.03.71 1.64a7.3 7.3 0 0 1 0 3.66 4.5 4.5 0 0 1-.7 1.6 3.8 3.8 0 0 1-1.3 1.18c-.52.29-1.16.44-1.93.44-.69 0-1.28-.15-1.77-.44-.5-.3-.9-.7-1.22-1.17a5.42 5.42 0 0 1-.69-1.61 8.36 8.36 0 0 1-.2-1.84ZM282.96 54.13 287.54 66h1.54l4.44-11.87h-1.5l-3.67 10.42h-.05l-3.73-10.42h-1.6ZM294.97 49.58v2.32h1.45v-2.32h-1.45Zm0 4.55V66h1.45V54.13h-1.45ZM299.19 49.58V66h1.45v-4.5l2.35-1.96 4.69 6.46h1.81l-5.4-7.48 5.06-4.39h-1.93l-6.58 5.75v-10.3h-1.45ZM310.71 49.58V66h1.45V49.58h-1.45ZM323.47 59.24h-7.68c.06-.54.18-1.06.36-1.57.2-.52.46-.97.79-1.35A3.5 3.5 0 0 1 319.7 55a3.5 3.5 0 0 1 2.74 1.31 5.04 5.04 0 0 1 1.04 2.92Zm-7.68 1.22h9.13a9.3 9.3 0 0 0-.23-2.44 6 6 0 0 0-.92-2.14 4.71 4.71 0 0 0-1.64-1.52 4.86 4.86 0 0 0-2.43-.57 5.1 5.1 0 0 0-2.44.55c-.68.35-1.23.83-1.66 1.42a6.2 6.2 0 0 0-.96 2 9.53 9.53 0 0 0 0 4.72c.21.75.53 1.42.96 2 .43.57.98 1.02 1.66 1.36.69.32 1.5.48 2.44.48a5 5 0 0 0 3.47-1.1 5.75 5.75 0 0 0 1.7-3.13h-1.45a4.36 4.36 0 0 1-1.24 2.2c-.6.56-1.43.84-2.48.84a3.4 3.4 0 0 1-1.77-.44c-.5-.3-.9-.66-1.22-1.1a4.64 4.64 0 0 1-.72-1.5 6.9 6.9 0 0 1-.2-1.63ZM326.86 54.13V66h1.45v-6.33a4.5 4.5 0 0 1 1.22-3.1 4.25 4.25 0 0 1 3.2-1.15v-1.45c-1.08-.05-2 .2-2.79.71a4.58 4.58 0 0 0-1.7 2.23h-.05v-2.78h-1.33Z" fill-opacity=".8"/></svg>