<svg viewBox="0 0 75 25" fill="none" xmlns="http://www.w3.org/2000/svg"><path d="m30.44 8.53.05 1.05a3.25 3.25 0 0 1 2.64-1.22c1.89 0 2.85 1.08 2.88 3.25v6.01h-2.03v-5.9c0-.57-.13-1-.37-1.27-.25-.28-.66-.42-1.22-.42-.82 0-1.43.37-1.84 1.12v6.47h-2.03v-9.1h1.92Zm11.63 9.26a4.2 4.2 0 0 1-3.13-1.22c-.8-.82-1.2-1.9-1.2-3.26v-.25c0-.91.17-1.72.52-2.44a3.88 3.88 0 0 1 3.58-2.26c1.23 0 2.19.4 2.86 1.18.67.8 1 1.91 1 3.36v.82H39.8c.06.75.3 1.35.75 1.78.44.44.99.66 1.65.66.93 0 1.7-.38 2.28-1.14l1.1 1.05c-.37.55-.85.97-1.46 1.27-.6.3-1.28.45-2.04.45Zm-.24-7.8c-.56 0-1 .2-1.35.6-.35.39-.56.94-.66 1.64h3.88v-.16a2.49 2.49 0 0 0-.55-1.55 1.7 1.7 0 0 0-1.32-.52Zm8-3.67v2.2h1.6v1.52h-1.6v5.08c0 .34.07.6.2.75.15.15.39.23.74.23.24 0 .48-.03.71-.09v1.58c-.46.13-.9.2-1.34.2-1.56 0-2.34-.87-2.34-2.6v-5.15h-1.5V8.53h1.5V6.32h2.03Zm5.32 11.3h-2.03V4.72h2.03v12.9Zm4.38 0h-2.04v-9.1h2.04v9.1ZM57.37 6.17c0-.32.1-.58.3-.78.2-.21.48-.32.84-.32.37 0 .66.1.86.32.2.2.3.46.3.78 0 .3-.1.56-.3.77-.2.2-.49.3-.85.3-.37 0-.66-.1-.85-.3-.2-.2-.3-.47-.3-.77Zm5.09 11.45v-7.58h-1.38V8.53h1.38V7.7c0-1.01.28-1.8.84-2.34a3.2 3.2 0 0 1 2.34-.82c.36 0 .74.05 1.14.15l-.05 1.6a4 4 0 0 0-.78-.07c-.97 0-1.46.5-1.46 1.5v.8h1.84v1.52H64.5v7.58h-2.03Zm8.53-2.92 1.84-6.17H75L71.4 19c-.55 1.53-1.5 2.3-2.81 2.3-.3 0-.63-.06-.98-.16v-1.58l.38.03c.52 0 .9-.1 1.16-.28.26-.2.47-.5.62-.95l.29-.78-3.18-9.05h2.2l1.9 6.17ZM17.36 8.33h-.02a.07.07 0 0 1-.02-.07l.48-2.96 2.27 2.27-2.36 1-.02.01h-.02c-.09-.1-.2-.19-.31-.25Zm3.29-.18 2.42 2.43c.5.5.76.76.85 1.05l.03.13-5.8-2.46c-.02-.01-.05-.02-.05-.05 0-.02.03-.03.05-.04l2.5-1.06Zm3.2 4.39c-.12.23-.37.48-.78.9l-2.73 2.73-3.54-.74h-.02c-.03 0-.06-.01-.06-.04-.03-.3-.18-.57-.4-.75-.02-.01-.02-.04-.02-.06l.67-4.1c0-.04.01-.07.04-.07.29-.04.55-.19.73-.42l.01-.02.07.01 6.03 2.56Zm-4.14 4.26-4.5 4.5.77-4.74.01-.02c0-.02.02-.02.04-.03.17-.07.32-.19.44-.33.02-.01.03-.03.06-.03h.01l3.17.65Zm-5.45 5.45-.5.5-5.6-8.1c-.02-.02-.03-.03-.02-.04v-.03h.02l.04-.09.02-.02.03-.04h.04l6.2 1.28a.1.1 0 0 1 .06.02v.03c.1.33.33.6.65.74.02 0 .01.03 0 .05v.02l-.94 5.68Zm-1.05 1.06c-.38.37-.6.56-.85.64-.24.08-.5.08-.75 0-.3-.09-.54-.34-1.05-.85l-5.62-5.63 1.47-2.28a.1.1 0 0 1 .02-.03h.06c.34.1.7.09 1.02-.05h.05l.02.02 5.63 8.18ZM4.4 16.93l-1.3-1.3 2.55-1.08h.03c.02 0 .03.02.04.04l.08.11.01.01v.03L4.4 16.93Zm-1.86-1.86L.9 13.43a9.46 9.46 0 0 1-.61-.65l4.96 1.03h.02c.03 0 .06.01.06.04s-.04.05-.07.06h-.01l-2.71 1.16ZM0 11.94c0-.1.02-.21.06-.31.09-.3.34-.55.84-1.05L3 8.48c.95 1.4 1.92 2.8 2.89 4.2.01.02.03.04.01.06a1.74 1.74 0 0 0-.28.37H5.6L0 11.94Zm3.55-4.01 2.8-2.81 2.1.88 1.42.6.05.04v.04c-.1.41.03.84.32 1.14.02.02 0 .05-.01.07l-.01.02-2.85 4.42-.03.03h-.05a1.42 1.42 0 0 0-.67 0h-.03a.13.13 0 0 1-.03-.04l-3-4.4Zm3.38-3.38L10.56.9c.5-.5.76-.76 1.05-.85.25-.08.5-.08.75 0 .3.09.55.34 1.05.85l.79.79-2.59 4a.1.1 0 0 1-.02.04h-.06a1.31 1.31 0 0 0-1.2.23c-.02.02-.04 0-.06 0L6.93 4.55Zm7.82-2.3 2.39 2.39-.58 3.57v.03l-.04.02a1.14 1.14 0 0 0-.38.2l-.02-.01-3.64-1.55c-.03-.01-.06-.02-.06-.05-.02-.2-.09-.4-.2-.57-.01-.03-.03-.06-.01-.09l2.54-3.94Zm-2.46 5.39 3.41 1.44.05.04v.03a.85.85 0 0 0-.02.17v.1c0 .02-.03.03-.05.04l-7.6 3.24-.03-.01c-.02-.02 0-.05.01-.07l.01-.01 2.8-4.35h.01c.02-.03.03-.06.06-.06h.03l.18.02a1.27 1.27 0 0 0 1.08-.59h.06Zm-3.9 5.75 7.67-3.28h.02c.05.05.08.08.12.1l.01.02c.02 0 .03.01.04.03v.02l-.66 4.04v.02c-.01.03-.01.07-.04.07-.36.02-.68.22-.86.53l-.04.04h-.04L8.49 13.7l-.1-.32Z" /></svg>