<svg viewBox="0 0 90 16" fill="none" xmlns="http://www.w3.org/2000/svg"><path d="M35.52 4.5a.65.65 0 0 1 .19.48v9.11a.73.73 0 0 1-.44.69.69.69 0 0 1-.29.05c-.1 0-.21-.02-.32-.05a.55.55 0 0 1-.25-.16l-5.9-7.68v7.23a.64.64 0 0 1-.66.66.61.61 0 0 1-.6-.4.65.65 0 0 1-.04-.26V5.04a.7.7 0 0 1 .2-.52.67.67 0 0 1 .51-.2c.12 0 .24.02.35.07.1.03.18.1.25.18l5.88 7.7v-7.3a.64.64 0 0 1 .66-.65.62.62 0 0 1 .46.19Zm12.13 0c.13.15.2.33.2.52v5.77c0 .75-.18 1.48-.53 2.14a3.82 3.82 0 0 1-1.45 1.47 4.1 4.1 0 0 1-2.08.55 4.17 4.17 0 0 1-2.1-.53 3.8 3.8 0 0 1-1.46-1.48 4.32 4.32 0 0 1-.53-2.14V5.03a.69.69 0 0 1 .22-.51.75.75 0 0 1 1.04 0 .68.68 0 0 1 .21.5v5.77c0 .5.12.98.36 1.4a2.6 2.6 0 0 0 2.26 1.32 2.68 2.68 0 0 0 2.7-2.72V5.03c-.02-.2.05-.38.17-.52a.64.64 0 0 1 .5-.22.65.65 0 0 1 .5.22Zm11.56 9.25a.7.7 0 0 1 .14.43.65.65 0 0 1-.22.5c-.13.13-.3.2-.49.2a.67.67 0 0 1-.58-.3l-2.92-3.9-2.85 3.9a.69.69 0 0 1-.84.27.62.62 0 0 1-.2-.15.58.58 0 0 1-.2-.42.8.8 0 0 1 .19-.5l3.08-4.19-3.1-4.16a.7.7 0 0 1 .06-.94.7.7 0 0 1 .83-.13c.1.05.2.12.26.22l2.89 3.88 2.86-3.84a.73.73 0 0 1 .57-.33.64.64 0 0 1 .47.21.64.64 0 0 1 .21.46c0 .15-.05.3-.15.43L56.1 9.56l3.12 4.2Zm10.84-9.24a.66.66 0 0 1 .21.5.64.64 0 0 1-.21.5.76.76 0 0 1-.52.17h-2.67v8.43a.69.69 0 0 1-.22.51.82.82 0 0 1-1.1 0 .7.7 0 0 1-.2-.5V5.67h-2.67a.73.73 0 0 1-.52-.18.66.66 0 0 1-.2-.5.64.64 0 0 1 .2-.5c.14-.12.33-.19.52-.18h6.86c.2 0 .38.06.52.19ZM73.34 14.56c-.48-.27-.89-.67-1.17-1.15a.76.76 0 0 1-.14-.4.64.64 0 0 1 .23-.5.7.7 0 0 1 .46-.21.96.96 0 0 1 .68.37 1.81 1.81 0 0 0 1.58.88 1.92 1.92 0 0 0 1.97-1.93V5.04a.68.68 0 0 1 .22-.51.74.74 0 0 1 .53-.21.71.71 0 0 1 .53.2.7.7 0 0 1 .2.52v6.6a3.25 3.25 0 0 1-1.69 2.9 3.49 3.49 0 0 1-3.4.02Zm10.33.11a4.95 4.95 0 0 1-1.61-1 .8.8 0 0 1-.31-.61.68.68 0 0 1 .21-.49.67.67 0 0 1 .5-.21c.15 0 .3.06.42.16a3.75 3.75 0 0 0 2.69 1.08c.57.02 1.12-.13 1.6-.43a1.28 1.28 0 0 0 .65-1.1 1.4 1.4 0 0 0-.65-1.2 5.8 5.8 0 0 0-1.94-.72 5.21 5.21 0 0 1-2.39-1.04 2.5 2.5 0 0 1-.83-2c-.01-.55.15-1.1.47-1.56.32-.45.77-.81 1.28-1.03a5.09 5.09 0 0 1 3.62-.06c.5.17.95.44 1.34.8a.85.85 0 0 1 .34.64.67.67 0 0 1-.2.48.64.64 0 0 1-.49.21.5.5 0 0 1-.34-.12 3.1 3.1 0 0 0-1.08-.66 3.6 3.6 0 0 0-1.32-.26 2.75 2.75 0 0 0-1.6.42 1.33 1.33 0 0 0 0 2.21 5.6 5.6 0 0 0 1.77.66c.66.13 1.3.33 1.92.6.47.2.87.54 1.15.96.29.49.43 1.05.4 1.61.01.56-.16 1.1-.48 1.55-.34.46-.8.82-1.33 1.05-.58.26-1.21.38-1.85.38-.66 0-1.32-.1-1.94-.32ZM6.23 14.7a1.07 1.07 0 0 1-.11-.69H1.27l7.2-12.66 2.37 4.16.68-1.22L9.46.66a1.26 1.26 0 0 0-1-.66 1.12 1.12 0 0 0-.98.67L.18 13.5a1.29 1.29 0 0 0-.06 1.2 1.12 1.12 0 0 0 1.07.52h6.1a1.12 1.12 0 0 1-1.06-.51ZM20.28 13.5l-6-10.56a1.26 1.26 0 0 0-1-.67 1.12 1.12 0 0 0-.98.67l-.78 1.35.7 1.22 1.06-1.9 5.93 10.41h-2.26a1.01 1.01 0 0 1-.09.62l-.02.04a1.3 1.3 0 0 1-1.09.54h3.53a1.29 1.29 0 0 0 1.09-.54 1.12 1.12 0 0 0-.1-1.18Z" /><path d="m16.84 14.68.02-.04a1 1 0 0 0 .1-.62c-.04-.18-.1-.36-.2-.52l-4.54-8-.7-1.2-.69 1.2-4.54 8c-.08.16-.14.34-.17.52a1.07 1.07 0 0 0 .1.69 1.12 1.12 0 0 0 1.07.51h8.46a1.3 1.3 0 0 0 1.1-.54Zm-5.32-7.96 4.15 7.3h-8.3l4.15-7.3Z" /></svg>