<svg viewBox="0 0 75 16" fill="none" xmlns="http://www.w3.org/2000/svg"><g clip-path="url(#a)" ><path opacity=".7" d="M55.6 5.81v9.46h-3.05V7.43L55.6 5.8ZM14.9 15.51l7.1-3.8-.87-2.32-4.68 2.23-1.55 3.9Z"/><path opacity=".5" d="m52.55 7.42 7.71-4.03-1.3-2.26-6.4 3.2v3.09Z"/><path opacity=".7" d="M30.84 5.06v10.21h-2.9V.73l2.9 4.33Z"/><path opacity=".5" d="M19.3 4.5 14.9 15.5l-2.26-1.99L17.87.73 19.3 4.5Z"/><path d="M17.87.73h3l5.54 14.54h-3.07L17.87.73ZM31.29.73l6.39 9.94v4.6L27.94.73h3.35ZM46.16.73h-3.01v14.55h3.01V.73ZM52.55 3.39h-4.64V.73h10.82l1.53 2.66h-7.71Z"/><path opacity=".5" d="M69.17 9.76v5.51h-3V9.76"/><path d="M66.18 9.76 71.25.73h3.18l-5.26 9.03h-3Z"/><path opacity=".7" d="M66.18 9.76 60.97.73h3.28l3.53 6.19-1.6 2.84Z"/><path d="M1.4 2.41c0 2.03 1.24 3.23 3.73 3.87l2.64.61c2.36.55 3.8 1.9 3.8 4.1.01.96-.3 1.9-.88 2.65 0-2.2-1.13-3.38-3.86-4.1l-2.6-.59C2.16 8.48.56 7.36.56 4.97c-.01-.92.28-1.82.83-2.56Z"/><path opacity=".7" d="M37.68 9.92V.73h2.9v14.54h-2.9V9.92ZM9.06 10.45c1.13.72 1.62 1.74 1.62 3.19-.93 1.2-2.57 1.87-4.5 1.87-3.23 0-5.5-1.6-6-4.38h3.1C3.7 12.4 4.76 13 6.18 13c1.72 0 2.87-.93 2.9-2.56M3.01 5.41a3.32 3.32 0 0 1-1.62-3C2.3 1.22 3.86.5 5.77.5c3.3 0 5.2 1.76 5.68 4.22h-3C8.12 3.74 7.3 2.98 5.8 2.98c-1.6 0-2.7.94-2.77 2.43"/></g><defs><clipPath id="a"><path  d="M0 0h74.67v16H0z"/></clipPath></defs></svg>