<svg viewBox="0 0 103 18" fill="none" xmlns="http://www.w3.org/2000/svg"><path d="M18.18 17.7c1.6 0 2.2-.7 2.2-2.4V12c0-1.59.77-2.5 1.5-2.92.23-.13.23-.44 0-.6a3.4 3.4 0 0 1-1.5-2.86V2.37c0-1.84-.5-2.37-2.11-2.37H3.79C2.18 0 1.67.53 1.67 2.37v3.25a3.4 3.4 0 0 1-1.5 2.87.35.35 0 0 0 0 .59c.74.41 1.5 1.32 1.5 2.91v3.31c0 1.7.6 2.4 2.2 2.4h14.3Zm-7.19-3.03a5.9 5.9 0 0 1-4.15-1.54.82.82 0 0 1-.27-.62c0-.18.04-.37.18-.52l.35-.46c.18-.22.37-.32.6-.32.24 0 .48.1.73.26.8.52 1.69.82 2.75.82.82 0 1.47-.34 1.47-1.04 0-1.8-6-.81-6-4.86C6.64 4.2 8.41 3 10.71 3c1.63 0 2.83.47 3.72 1.04a.91.91 0 0 1 .22 1.22l-.27.4c-.2.27-.41.4-.7.4-.19 0-.4-.07-.61-.17a4.66 4.66 0 0 0-2.2-.52c-.88 0-1.4.47-1.4.96 0 1.85 6 .84 6 4.78 0 2.2-1.77 3.56-4.49 3.56ZM28.42 12.04c.15-.2.31-.27.5-.27.2 0 .43.09.63.24.66.44 1.42.7 2.32.7.7 0 1.24-.29 1.24-.9 0-1.52-5.07-.69-5.07-4.1 0-1.82 1.5-2.86 3.44-2.86 1.38 0 2.38.38 3.14.89.19.12.3.37.3.62 0 .15-.02.28-.11.43l-.24.34c-.16.23-.35.34-.57.34-.17 0-.34-.08-.54-.15a4.01 4.01 0 0 0-1.84-.44c-.73 0-1.17.38-1.17.8 0 1.56 5.07.72 5.07 4.03 0 1.85-1.5 3-3.8 3a5.02 5.02 0 0 1-3.5-1.28.71.71 0 0 1-.24-.54c0-.14.03-.3.15-.44l.3-.41Zm14.52.97c.08.1.1.24.1.36 0 .26-.11.54-.35.66-.7.43-1.42.62-2.35.62-2.11 0-2.91-1.37-2.91-3.78V3.24c0-.43.35-.79.78-.79h.84c.43 0 .79.36.79.79v1.83h2.26c.43 0 .78.36.78.79v.7c0 .43-.35.79-.78.79h-2.26v3.43c0 1.02.34 1.7 1.12 1.7.25 0 .47-.03.67-.1.19-.08.34-.1.47-.1.27 0 .47.11.65.42l.2.31Zm1.47-1.3c0-2.07 1.52-3.04 3.43-3.04.83 0 1.65.26 2.11.6V9c0-1.37-.44-2.11-1.74-2.11-.71 0-1.17.1-1.61.25-.12.03-.26.07-.37.07a.76.76 0 0 1-.71-.44l-.12-.25c-.03-.1-.1-.21-.1-.34 0-.27.2-.55.45-.67a6.6 6.6 0 0 1 2.7-.62c2.79 0 3.75 1.42 3.75 3.9v4.94c0 .43-.36.79-.78.79h-.55a.79.79 0 0 1-.78-.79v-.3c-.5.7-1.51 1.19-2.78 1.19-1.68-.02-2.9-1.08-2.9-2.9Zm5.54-.97a2.7 2.7 0 0 0-1.64-.46c-.8 0-1.5.37-1.5 1.17 0 .7.57 1.1 1.34 1.1 1 0 1.52-.44 1.82-.84v-.97h-.02ZM59.98 13c.07.1.1.24.1.36 0 .26-.12.54-.35.66-.71.43-1.42.62-2.35.62-2.12 0-2.92-1.37-2.92-3.78V3.24c0-.43.36-.79.79-.79h.84c.43 0 .78.36.78.79v1.83h2.26c.43 0 .79.36.79.79v.7c0 .43-.36.79-.79.79h-2.26v3.43c0 1.02.34 1.7 1.13 1.7.25 0 .47-.03.66-.1.2-.08.34-.1.47-.1.27 0 .48.11.66.42l.19.31Zm1.46-1.3c0-2.07 1.52-3.04 3.43-3.04.83 0 1.66.26 2.12.6V9c0-1.37-.45-2.11-1.75-2.11-.7 0-1.17.1-1.61.25-.12.03-.25.07-.37.07a.76.76 0 0 1-.71-.44l-.12-.25c-.03-.1-.09-.21-.09-.34 0-.27.2-.55.45-.67a6.6 6.6 0 0 1 2.7-.62c2.78 0 3.74 1.42 3.74 3.9v4.94c0 .43-.35.79-.78.79h-.55a.79.79 0 0 1-.78-.79v-.3c-.5.7-1.5 1.19-2.78 1.19-1.66-.02-2.9-1.08-2.9-2.9Zm5.55-.97a2.7 2.7 0 0 0-1.64-.46c-.8 0-1.51.37-1.51 1.17 0 .7.57 1.1 1.34 1.1 1 0 1.53-.44 1.82-.84v-.97H67ZM74.1 6.1a4 4 0 0 1 2.93-1.2c1.44 0 2.4.65 2.74 1.5a3.8 3.8 0 0 1 3.16-1.5c1.72 0 3 .84 3 3.43v5.35c0 .43-.35.79-.78.79h-.84a.79.79 0 0 1-.79-.79V8.95c0-1.17-.47-1.8-1.6-1.8-.91 0-1.62.44-1.95 1.07l.02.7v4.74c0 .43-.36.79-.78.79h-.85a.79.79 0 0 1-.78-.79V8.78c0-.99-.55-1.62-1.55-1.62a2.3 2.3 0 0 0-1.97 1v5.53c0 .43-.36.79-.78.79h-.85a.79.79 0 0 1-.78-.79V5.84c0-.43.35-.78.78-.78h.85c.42 0 .78.35.78.78v.27h.04Zm17.26-4.42c0 .96-.7 1.5-1.37 1.5-.82 0-1.51-.54-1.51-1.5 0-.85.7-1.4 1.5-1.4.69 0 1.38.55 1.38 1.4Zm-1 3.38c.42 0 .78.36.78.79v7.83c0 .43-.36.79-.79.79h-.84a.79.79 0 0 1-.78-.79V5.84c0-.43.35-.78.78-.78h.84v.01Zm10.05 2.4a3.61 3.61 0 0 0-1.66-.37 2.6 2.6 0 0 0-2.61 2.66c0 1.66 1.28 2.7 2.7 2.7.74 0 1.27-.2 1.82-.56.16-.1.34-.16.5-.16.25 0 .48.1.66.31l.35.44c.1.1.15.27.15.43 0 .26-.1.54-.28.67a4.76 4.76 0 0 1-3.29 1.1c-3.1 0-5.16-1.96-5.16-4.92 0-2.73 2-4.92 4.87-4.92a6 6 0 0 1 3.09.71c.23.12.37.43.37.7 0 .11-.02.23-.1.34l-.3.54a.86.86 0 0 1-.71.45c-.12-.03-.27-.05-.4-.12Z" /></svg>