<svg viewBox="0 0 778 145" fill="none" xmlns="http://www.w3.org/2000/svg">
<g clip-path="url(#clip0_97:2)">
<path d="M651.765 106.842L630.942 67.921L617.746 83.9473V106.842H606.763V32.5868H617.822V68.5315L646.425 32.5868H659.163L638.417 58.6868L664.808 106.766H651.841L651.765 106.842ZM688.529 106.842V32.5868H699.512V106.842H688.529ZM756.947 43.1947V106.842H745.887V43.1947H724.912V32.5105H777.999V43.1947H757.023H756.947Z" />
<path fill-rule="evenodd" clip-rule="evenodd" d="M168.643 103.255C173.677 106.613 179.627 108.292 185.652 108.139C193.051 108.063 199.153 106.155 203.882 102.187C208.687 98.2948 210.975 92.8 210.975 85.9316C210.975 83.8711 210.747 81.8869 210.213 79.9026C209.47 76.5392 207.648 73.5109 205.026 71.279C203.882 70.2105 202.661 69.2184 201.365 68.2263C198.446 66.5406 195.413 65.0616 192.288 63.8L187.559 62.0448L179.855 59.2211C178.025 58.3816 176.347 57.3132 174.974 55.9395C174.241 55.3029 173.651 54.518 173.243 53.6366C172.836 52.7553 172.62 51.7974 172.609 50.8263C172.543 49.5552 172.785 48.2868 173.317 47.1303C173.848 45.9738 174.652 44.9637 175.66 44.1869C178.101 42.5842 180.999 41.7447 183.974 41.8974C187.025 41.8211 190 42.5079 192.593 43.9579C194.805 45.2553 196.483 47.1632 197.551 49.4526L207.696 46.0184C206.399 41.6684 203.653 37.8526 199.839 35.3342C195.873 32.6632 190.915 31.2895 184.813 31.2895C178.565 30.9631 172.42 32.9763 167.575 36.9369C164.677 39.4553 162.617 42.8132 161.702 46.5526C161.071 49.4145 161.108 52.3833 161.809 55.2288C162.51 58.0743 163.857 60.72 165.745 62.9605C167.257 64.5238 169.008 65.8374 170.931 66.8526C172.686 67.9211 174.516 68.9132 176.499 69.7526L182.83 72.0421C186.116 73.0566 189.307 74.359 192.364 75.9342C193.787 76.594 195.099 77.4692 196.254 78.529C197.17 79.4448 197.932 80.5132 198.543 81.7342C199.229 83.0316 199.534 84.5579 199.534 86.0842C199.612 87.6712 199.322 89.2548 198.687 90.7111C198.052 92.1673 197.089 93.4569 195.873 94.479C193.051 96.6158 189.619 97.6842 186.11 97.5316C182.449 97.5316 178.864 96.5395 175.889 94.479C172.838 92.4184 170.55 89.5948 169.024 86.2369L158.727 90.0527C160.423 95.4605 163.923 100.121 168.643 103.255ZM228.137 32.5869L253.537 106.842H253.613H264.673L289.843 32.5105H278.097L261.469 84.4053C260.63 87.1526 259.791 89.9763 259.105 92.8C258.571 89.9763 257.732 87.1526 256.816 84.329L240.036 32.5869H228.137ZM312.268 32.5869V106.842H312.42H360.702V96.4632H323.404V73.7211H345.981V63.3421H323.404V42.9658H358.261V32.5869H312.268ZM388.695 32.5869V106.842H435.909V96.2342H399.679V32.5869H388.695ZM477.402 106.842V43.1947H477.478H498.378V32.5105H445.443V43.1947H466.419V106.842H477.402ZM521.184 32.5869V106.842H569.466V96.4632H532.167V73.7211H554.745V63.3421H532.167V42.9658H567.101V32.5869H521.184ZM82.4296 1.08506C93.002 3.35382 102.312 9.57052 108.462 18.4684L108.386 18.5448C111.447 22.8293 113.625 27.6805 114.793 32.8158C116.034 37.8534 116.214 43.0943 115.321 48.2052C114.428 53.316 112.482 58.1851 109.607 62.5026C113.573 70.1342 114.946 79.0632 113.42 87.6869C112.511 92.7852 110.549 97.6379 107.66 101.935C104.771 106.232 101.017 109.878 96.6399 112.642L64.2232 133.324C58.4967 136.786 52.0337 138.846 45.3607 139.336C38.6877 139.826 31.9934 138.733 25.8228 136.144C19.6523 133.556 14.1801 129.545 9.85181 124.44C5.52354 119.335 2.46161 113.279 0.915378 106.766C-0.325748 101.728 -0.50556 96.4873 0.387376 91.3765C1.28031 86.2656 3.22646 81.3965 6.10204 77.079C2.07186 69.3406 0.730127 60.4803 2.28832 51.8948C3.17753 46.7692 5.13014 41.8868 8.02033 37.5623C10.9105 33.2379 14.6741 29.5672 19.0687 26.7869L51.5617 6.25791C60.8182 0.666244 71.8573 -1.18369 82.4296 1.08506ZM38.2225 123.298C41.6062 123.78 45.052 123.582 48.3583 122.716C50.7229 122.105 52.9348 121.113 54.9179 119.816L87.3346 99.1342C91.3513 96.631 94.4736 92.9207 96.2546 88.5342C98.0357 84.1477 98.3842 79.3098 97.2503 74.7131C96.4575 71.3818 95.0078 68.2425 92.9862 65.4793C90.9646 62.7161 88.4118 60.3847 85.4776 58.6218C82.5434 56.8589 79.2869 55.7 75.8991 55.2132C72.5113 54.7264 69.0604 54.9214 65.7489 55.7868C63.4607 56.3973 61.1725 57.3894 59.1893 58.6868L46.8328 66.6236C46.2227 67.0052 45.5362 67.3105 44.8497 67.4631C43.2994 67.8698 41.6614 67.7874 40.1596 67.2274C38.6579 66.6673 37.3656 65.6569 36.4595 64.3342C35.3699 62.7818 34.9318 60.8639 35.2391 58.9921C35.3956 58.0565 35.7484 57.1648 36.2743 56.3756C36.8002 55.5863 37.4872 54.9175 38.2901 54.4131L70.7068 33.7315C71.3218 33.3534 71.9904 33.0704 72.6899 32.8921C74.2215 32.4946 75.8379 32.5739 77.3233 33.1193C78.8088 33.6647 80.0927 34.6503 81.0038 35.9447C82.0108 37.3366 82.4968 39.0385 82.3768 40.7526L82.2242 41.9736L83.4446 42.3552C87.9949 43.7296 92.2771 45.8718 96.1062 48.6894L97.7842 49.9105L98.3944 48.0789C99.6821 44.0288 99.8664 39.7083 98.9283 35.5631C98.1271 32.2387 96.6713 29.1076 94.646 26.3529C92.6208 23.5982 90.0668 21.2753 87.1335 19.52C84.2003 17.7648 80.9466 16.6125 77.5628 16.1305C74.1791 15.6486 70.7333 15.8466 67.427 16.7131C65.1387 17.3237 62.9268 18.3158 60.8674 19.6131L28.4507 40.2947C24.434 42.7979 21.3117 46.5082 19.5307 50.8947C17.7496 55.2812 17.4011 60.119 18.535 64.7158C19.4843 68.6284 21.3384 72.2633 23.9482 75.3281C26.5579 78.3928 29.8503 80.8016 33.5605 82.3607C37.2706 83.9198 41.2947 84.5856 45.309 84.3045C49.3232 84.0233 53.2154 82.8031 56.6723 80.7421L69.0287 72.8052C69.662 72.3921 70.3573 72.0829 71.0881 71.8894C72.0849 71.6389 73.1215 71.5885 74.1378 71.7412C75.1542 71.8938 76.1303 72.2463 77.0097 72.7785C77.8891 73.3107 78.6544 74.012 79.2614 74.8418C79.8684 75.6716 80.3051 76.6135 80.5462 77.6131C80.8994 79.0112 80.7934 80.486 80.2439 81.8191C79.6945 83.1523 78.7307 84.2731 77.4952 85.0158L45.0785 105.774L45.0785 105.774C44.4683 106.079 43.8581 106.384 43.0954 106.537C41.5638 106.934 39.9474 106.855 38.462 106.31C36.9765 105.764 35.6926 104.779 34.7815 103.484C33.7899 102.11 33.3323 100.355 33.4848 98.6763L33.5611 97.4552L32.3407 97.0736C27.8405 95.7 23.4928 93.5631 19.6791 90.7394L18.0011 89.5184L17.3909 91.35C16.1032 95.4001 15.9189 99.7206 16.857 103.866C17.6582 107.19 19.114 110.321 21.1393 113.076C23.1645 115.831 25.7185 118.154 28.6518 119.909C31.585 121.664 34.8387 122.816 38.2225 123.298Z" />
</g>
<defs>
<clipPath id="clip0_97:2">
<rect width="778" height="145" fill="white"/>
</clipPath>
</defs>
</svg>
