<svg viewBox="0 0 295 42" fill="none" xmlns="http://www.w3.org/2000/svg"><path d="M21.29 41.76C10.09 41.76.97 32.44.97 20.98S10.08.21 21.29.21c1.87 0 3.74.26 5.55.78a1.94 1.94 0 0 1 1.3 2.4 1.89 1.89 0 0 1-2.34 1.33 16.29 16.29 0 0 0-4.51-.65c-9.11 0-16.51 7.56-16.51 16.88s7.4 16.88 16.5 16.88c9.12 0 16.52-7.56 16.52-16.88 0-2.2-.41-4.35-1.24-6.4-.41-1 .06-2.14 1.05-2.53.98-.42 2.1.07 2.47 1.08a20.83 20.83 0 0 1 1.53 7.85c0 11.5-9.11 20.81-20.32 20.81ZM37.29.5a1.8 1.8 0 0 0-1.46-.23c-.5.13-.92.46-1.18.91l-13.43 22.5-4.85-8.12a1.92 1.92 0 0 0-3.53.55 2 2 0 0 0 .23 1.53l8.19 13.76L37.99 3.26c.5-.97.19-2.2-.7-2.76Zm16.1 10.49c-.29-.88.1-1.47 1.01-1.47h1.53c.7 0 1.17.33 1.4 1.08l4.31 12.98c.38 1.23.8 3.15.8 3.15h.06s.38-1.92.8-3.15l4.34-12.98c.2-.72.67-1.08 1.37-1.08h1.46c.92 0 1.3.59 1.01 1.47l-6.7 18.99c-.22.68-.66 1-1.4 1h-1.9c-.7 0-1.14-.29-1.4-1l-6.7-19Zm25.27 4.25c4.25 0 6.64 3.08 6.64 7.3 0 .65-.58 1.3-1.3 1.3h-9.15a4.35 4.35 0 0 0 4.5 4.22c1.4 0 2.55-.55 3.25-1 .73-.36 1.27-.27 1.65.42l.35.61c.35.68.22 1.3-.42 1.7a9.49 9.49 0 0 1-5.08 1.52c-4.95 0-8.06-3.67-8.06-8.02 0-4.74 3.11-8.05 7.62-8.05Zm2.95 6.33c-.06-2.14-1.33-3.41-3.01-3.41-1.9 0-3.27 1.36-3.62 3.4h6.63Zm5.43 6.59.35-.55c.45-.62.95-.69 1.68-.3.7.4 1.81 1.04 3.37 1.04 1.3 0 2.1-.61 2.1-1.56 0-2.5-7.44-1.55-7.44-6.81 0-3.02 2.58-4.61 5.75-4.61 2 0 3.37.65 4.16 1.1.67.36.76 1 .45 1.69l-.29.55c-.35.72-.92.81-1.65.49-.64-.3-1.62-.75-2.86-.75-1.3 0-2.03.55-2.03 1.5 0 2.53 7.43 1.52 7.43 6.75 0 2.7-2.22 4.7-5.72 4.7-2.4 0-4.1-.94-4.98-1.55-.7-.36-.76-1.04-.32-1.7Zm14.16-9.19h-.73c-.76 0-1.17-.39-1.17-1.2v-.49c0-.78.38-1.2 1.17-1.2h.73V12.8c0-.68.54-1.26 1.24-1.26h1.02c.66 0 1.23.55 1.23 1.26v3.25h2.26c.66 0 1.24.55 1.24 1.27v.45c0 .81-.45 1.2-1.24 1.2H105v5.94c0 2.27 1.33 2.73 2.32 2.86.89.1 1.17.39 1.17 1.23v.94c0 .91-.5 1.27-1.52 1.27-2.64 0-5.78-1.46-5.78-5.62v-6.62Zm8.9-1.98c0-.68.53-1.27 1.23-1.27h1.33c.83 0 1.24.46 1.24 1.27v14.38c0 4.97-4.25 5.81-5.71 5.81h-.45c-.76 0-1.14-.42-1.14-1.26v-.78c0-.94.57-1.14 1.14-1.24.99-.13 2.35-.45 2.35-2.79V17Zm.3-5.1v-.74c0-.68.55-1.27 1.25-1.27H113c.67 0 1.2.55 1.2 1.24v.77c0 .69-.53 1.24-1.2 1.24h-1.4c-.66 0-1.2-.55-1.2-1.24Zm7 22.27c.25.13.63.26 1.07.26 1.11 0 1.97-.97 2.42-2.07l.57-1.37-5.78-13.8c-.38-.87 0-1.49.95-1.49h1.62c.73 0 1.18.33 1.4 1.04l2.86 7.92c.25.81.57 2.11.57 2.11h.06s.25-1.2.5-2.04l2.67-7.96c.23-.71.67-1.07 1.4-1.07h1.5c.91 0 1.3.59 1.01 1.46l-6.25 16.36c-1.05 2.83-3.24 4.1-5.47 4.1-.82 0-1.58-.23-2.12-.46-.7-.26-.9-.94-.57-1.66l.25-.68c.32-.65.83-.78 1.33-.65Zm13.8-6 .35-.55c.45-.62.96-.69 1.69-.3.7.4 1.8 1.04 3.36 1.04 1.3 0 2.1-.61 2.1-1.56 0-2.5-7.43-1.55-7.43-6.81 0-3.02 2.57-4.61 5.74-4.61 2 0 3.37.65 4.16 1.1.67.36.77 1 .45 1.69l-.29.55c-.35.72-.92.81-1.65.49-.63-.3-1.62-.75-2.86-.75-1.3 0-2.03.55-2.03 1.5 0 2.53 7.43 1.52 7.43 6.75 0 2.7-2.22 4.7-5.71 4.7-2.42 0-4.1-.94-4.99-1.55-.7-.36-.76-1.04-.31-1.7Zm13.53-17.34c0-.68.54-1.26 1.24-1.26h1.3c.83 0 1.27.45 1.27 1.26v10.42h1.81l3.05-4.67c.35-.62.76-.85 1.43-.85h1.36c.99 0 1.3.72.76 1.53l-3.65 5.45v-.29l4.32 7.05c.48.87.16 1.52-.8 1.52h-1.55c-.67 0-1.08-.26-1.4-.87l-3.43-5.94h-1.9v5.55c0 .68-.54 1.26-1.24 1.26H146c-.82 0-1.27-.42-1.27-1.26v-18.9Zm22.26-.06c.1-.78.5-1.2 1.27-1.2h1.71c.73 0 1.18.32 1.4 1.04l3.8 9.73c.48 1.3 1.09 3.19 1.09 3.19h.06s.57-1.92 1.05-3.19l3.8-9.73c.26-.72.7-1.04 1.44-1.04h1.68c.76 0 1.2.42 1.27 1.2l1.5 18.92c.06.82-.36 1.3-1.18 1.3h-1.34c-.76 0-1.2-.42-1.27-1.2l-.79-10.74c-.1-1.43-.03-3.32-.03-3.32h-.03s-.67 2.11-1.15 3.35l-3.04 7.34c-.23.68-.7 1-1.4 1h-1.18c-.73 0-1.17-.32-1.43-1l-3.01-7.34c-.48-1.24-1.14-3.38-1.14-3.38h-.04s.07 1.92-.03 3.35l-.8 10.7c-.05.79-.47 1.21-1.26 1.21h-1.34c-.82 0-1.23-.49-1.17-1.3l1.56-18.9Zm31.11 10.8h.64v-.35c0-1.98-1.3-2.66-2.86-2.66a7.2 7.2 0 0 0-3.18.84c-.76.33-1.33.2-1.68-.48l-.28-.56c-.35-.68-.26-1.26.47-1.65a11.2 11.2 0 0 1 5.02-1.23c3.97 0 6.32 2.17 6.32 6v8.28c0 .68-.54 1.26-1.24 1.26h-1.05c-.8 0-1.24-.42-1.24-1.3v-.61c0-.42.06-.68.06-.68h-.06s-1.9 3.73-6.41 2.63c-2-.49-3.5-2.3-3.46-4.42.1-4.35 5.55-5.06 8.95-5.06Zm-2.82 6.89c2.1 0 3.42-2.17 3.42-4.03v-.58h-.6c-1.87 0-5.08.3-5.08 2.6 0 1 .76 2.01 2.25 2.01Zm10.44-11.46c0-.81.41-1.27 1.24-1.27h1.01c.67 0 1.24.56 1.24 1.27v1.56c0 .58-.1 1.1-.1 1.1h.26c.54-1.75 2.03-3.73 3.94-3.86.7-.07 1.27.52 1.27 1.23v1.2c0 .72-.57 1.27-1.24 1.27-2.6.03-3.84 2.8-3.84 5.55v4.74c0 .85-.41 1.27-1.24 1.27h-1.3c-.83 0-1.24-.42-1.24-1.27V17Zm10.48-6.17c0-.68.54-1.26 1.24-1.26h1.3c.82 0 1.27.45 1.27 1.26v10.42h1.8l3.06-4.67c.34-.62.76-.85 1.42-.85h1.37c.98 0 1.3.72.76 1.53l-3.65 5.45v-.29l4.32 7.05c.47.87.16 1.52-.8 1.52h-1.55c-.67 0-1.08-.26-1.4-.87l-3.43-5.94h-1.9v5.55c0 .68-.54 1.26-1.24 1.26h-1.3c-.83 0-1.27-.42-1.27-1.26v-18.9Zm21.5 4.42c4.25 0 6.63 3.08 6.63 7.3 0 .65-.57 1.3-1.3 1.3h-9.15a4.35 4.35 0 0 0 4.51 4.22c1.4 0 2.54-.55 3.24-1 .73-.36 1.27-.27 1.65.42l.35.61c.35.68.22 1.3-.41 1.7a9.49 9.49 0 0 1-5.08 1.52c-4.96 0-8.07-3.67-8.07-8.02 0-4.74 3.15-8.05 7.62-8.05Zm2.95 6.33c-.07-2.14-1.34-3.41-3.02-3.41-1.9 0-3.27 1.36-3.62 3.4h6.64Zm6.66-2.6h-1.05c-.76 0-1.17-.39-1.17-1.2v-.49c0-.78.38-1.2 1.17-1.2h1.05V12.8c0-.68.54-1.26 1.24-1.26h1.02c.66 0 1.24.55 1.24 1.26v3.25h2.25c.67 0 1.24.55 1.24 1.27v.45c0 .81-.45 1.2-1.24 1.2h-1.94v5.94c0 2.27 1.34 2.73 2.32 2.86.89.1 1.18.39 1.18 1.23v.94c0 .91-.51 1.27-1.53 1.27-2.63 0-5.78-1.46-5.78-5.62v-6.62Zm9.24-7.08v-.77c0-.69.54-1.24 1.2-1.24h1.37c.67 0 1.24.55 1.24 1.27v.74c0 .69-.54 1.24-1.2 1.24h-1.4c-.67 0-1.2-.55-1.2-1.24Zm0 5.1c0-.81.41-1.27 1.24-1.27h1.33c.83 0 1.24.46 1.24 1.27v12.76c0 .84-.41 1.26-1.24 1.26h-1.33c-.83 0-1.24-.42-1.24-1.26V16.99Zm6.99 0c0-.68.54-1.27 1.23-1.27h1.05c.67 0 1.2.56 1.2 1.24v1c0 .33-.06.69-.06.69h.07a6.02 6.02 0 0 1 5.43-3.22c3.4 0 5.36 1.76 5.36 5.78v8.5c0 .69-.54 1.27-1.24 1.27h-1.33c-.8 0-1.24-.42-1.24-1.26v-7.83c0-1.85-.47-3.11-2.35-3.11-2.63 0-4.31 2.24-4.31 5.03v5.9c0 .85-.42 1.27-1.21 1.27h-1.43c-.8 0-1.17-.42-1.17-1.26V16.99Zm20.22 16.46c.73.26 1.68.58 3.08.58 2.35 0 4.32-.97 4.32-3.7V29.2c0-.36.06-.78.06-.78h-.06c-.83 1.43-2.16 2.27-4.2 2.27-4.47 0-6.91-3.54-6.91-7.76 0-4.15 2.35-7.56 6.89-7.56 3.55 0 4.54 2.34 4.54 2.34h.06s-.03-.17-.03-.4v-.55c0-.55.41-1 1.24-1h1.04c.67 0 1.21.55 1.21 1.23v13.08c0 5.23-4.13 7.21-7.94 7.21-1.71 0-3.43-.36-4.47-.81-.8-.33-.99-.85-.67-1.62l.25-.69c.32-.78.76-.97 1.6-.71Zm7.4-10.39c0-3.5-1.72-4.45-3.65-4.45-2.32 0-3.59 1.7-3.59 4.22 0 2.76 1.37 4.71 3.78 4.71 1.74 0 3.46-1.04 3.46-4.48Z" /></svg>