<svg xmlns="http://www.w3.org/2000/svg" fill="none" viewBox="0 0 108 19"><path fill="currentColor" fill-rule="evenodd" d="m28.856.5-9.207 18H11l3.853-7.46h-.172C11.5 15.167 6.758 17.884 0 18.5v-7.357s4.323-.255 6.865-2.927H0V.5h7.716v6.346h.173L11.042.5h5.835v6.306h.173L20.32.5h8.535Z" clip-rule="evenodd"/><path fill="currentColor" d="M79.066 16.513h2.485V2.25h-2.485v14.263Z"/><path fill="currentColor" fill-rule="evenodd" d="M65.368 16.367c.54.225 1.089.337 1.647.337.922 0 1.748-.224 2.476-.673a4.556 4.556 0 0 0 1.693-1.857c.4-.795.6-1.696.6-2.704 0-1.007-.206-1.908-.618-2.703a4.522 4.522 0 0 0-1.72-1.848c-.735-.443-1.57-.661-2.504-.655-.594 0-1.165.115-1.711.346a3.623 3.623 0 0 0-1.447 1.081V2.259H61.29v14.254h2.476l-.005-1.331a4.26 4.26 0 0 0 1.607 1.186Zm2.548-2.302c-.406.248-.87.373-1.393.373-.515 0-.989-.128-1.42-.382a2.889 2.889 0 0 1-1.028-1.065 3.102 3.102 0 0 1-.373-1.53c-.006-.57.115-1.08.364-1.529a2.732 2.732 0 0 1 1.028-1.056c.431-.254.908-.379 1.43-.373.521-.006.986.116 1.392.364.413.243.728.592.947 1.047.224.45.337.965.337 1.547 0 .583-.113 1.099-.337 1.548-.219.449-.534.8-.947 1.056Z" clip-rule="evenodd"/><path fill="currentColor" d="M32.456 3.115h2.84l2.54 9.277 2.703-9.277h2.367l2.93 9.091 2.44-9.091h2.603l-3.841 13.398H44.59l-2.98-8.881-2.737 8.881h-2.475L32.456 3.115Z"/><path fill="currentColor" fill-rule="evenodd" d="M55.073 16.75c-.99.006-1.881-.213-2.676-.655a4.921 4.921 0 0 1-1.866-1.866c-.45-.795-.674-1.703-.674-2.722 0-.99.23-1.884.692-2.685a4.966 4.966 0 0 1 1.875-1.875c.789-.45 1.669-.674 2.64-.674 1.092 0 2.048.243 2.867.728a4.501 4.501 0 0 1 1.848 2.067c.412.886.561 1.902.446 3.049h-7.797c.022.457.136.872.342 1.247.23.412.552.734.965.965.413.23.874.345 1.383.345.389-.006.75-.072 1.084-.2.333-.133.615-.312.846-.537.237-.224.404-.48.5-.764h2.604a4.235 4.235 0 0 1-.947 1.866 4.842 4.842 0 0 1-1.784 1.265 5.848 5.848 0 0 1-2.348.446Zm-2.294-7.136a2.63 2.63 0 0 0-.302.819h5.168a2.315 2.315 0 0 0-.342-1.01 2.215 2.215 0 0 0-.892-.829 2.67 2.67 0 0 0-1.274-.3 2.77 2.77 0 0 0-1.375.346c-.413.23-.74.555-.983.974Z" clip-rule="evenodd"/><path fill="currentColor" d="M73.614 6.483c0-.814.185-1.536.555-2.167a3.821 3.821 0 0 1 1.557-1.483c.673-.358 1.46-.544 2.357-.556V4.49c-.418.006-.776.094-1.074.264a1.646 1.646 0 0 0-.673.72c-.146.29-.224.626-.236 1.01h1.929v2.102h-1.93v7.928h-2.485V8.585h-1.602V6.483h1.602Z"/><path fill="currentColor" fill-rule="evenodd" d="M87.868 16.732c-1.013 0-1.92-.222-2.722-.665a4.92 4.92 0 0 1-1.875-1.857c-.449-.795-.673-1.696-.673-2.703 0-1.013.224-1.918.673-2.713a4.82 4.82 0 0 1 1.875-1.865c.801-.443 1.709-.665 2.722-.665 1.02 0 1.93.222 2.73.665a4.74 4.74 0 0 1 1.885 1.856c.449.795.676 1.703.682 2.722-.006 1.007-.233 1.908-.682 2.703a4.758 4.758 0 0 1-1.875 1.857c-.807.443-1.72.665-2.74.665Zm0-2.285c.534 0 1.007-.121 1.42-.364.413-.249.731-.595.956-1.038.224-.449.336-.962.336-1.538 0-.583-.112-1.098-.336-1.547a2.437 2.437 0 0 0-.956-1.038 2.695 2.695 0 0 0-1.42-.373c-.528 0-.998.124-1.41.373a2.455 2.455 0 0 0-.948 1.038c-.224.449-.333.964-.327 1.547 0 .576.112 1.09.337 1.538.23.443.546.79.946 1.038.407.243.874.364 1.402.364Z" clip-rule="evenodd"/><path fill="currentColor" d="M95.85 6.483h-2.766l2.994 10.03H98.5l1.97-6.406 2.126 6.406h2.385l3.004-10.03h-2.503l-1.704 6.243-1.883-6.243h-2.42l-1.874 6.38-1.75-6.38Z"/></svg>



