<svg xmlns="http://www.w3.org/2000/svg" fill="none" viewBox="0 0 475 108"><path fill="currentColor" fill-rule="evenodd" d="M48.127.21C25.194 2.995 6.862 19.16 1.52 41.312c-6.58 27.281 8.755 55.091 35.282 63.985 5.927 1.987 10.602 2.719 17.266 2.704 8.779-.021 15.294-1.551 23.268-5.467 15.288-7.506 25.913-21.438 29.348-38.484 1.003-4.98.905-15.775-.19-20.86-2.332-10.83-7.026-19.447-14.9-27.357C81.568 5.762 69.66.57 55.368.038c-2.451-.091-5.71-.013-7.241.173Zm14.481 2.825c25.384 4.43 43.733 27.311 42.57 53.085-.359 7.955-1.739 13.397-5.249 20.69-2.635 5.477-5.771 9.795-10.388 14.305-7.148 6.982-15.437 11.474-25.262 13.69-3.971.895-14.423 1.117-18.566.393-19.396-3.39-34.66-16.464-40.827-34.972-1.83-5.491-2.536-9.99-2.536-16.157 0-8.419 1.678-15.663 5.34-23.048 2.648-5.343 5.201-8.861 9.804-13.51C29.504 5.376 45.894.117 62.608 3.034Zm-15.78 5.141c-11.41 1.9-21.879 7.905-28.642 16.433-1.402 1.768-2.605 3.374-2.673 3.57-.156.447 3.01.44 10.125-.022 4.944-.322 5.619-.294 6.22.252.37.337.674.98.674 1.429 0 1.407-1.136 2.03-4.17 2.287l-2.815.239 8.142 24.273c4.477 13.35 8.24 24.525 8.362 24.832.122.308 2.474-6.198 5.226-14.457l5.004-15.017-3.43-9.401c-1.886-5.17-3.498-9.588-3.582-9.815-.084-.229-1.355-.527-2.825-.664-3.112-.29-4.22-1.044-3.83-2.606.406-1.622 1.112-1.737 7.986-1.298 4.578.292 8.13.292 12.708 0 4.013-.256 6.594-.276 7.008-.054.805.433 1.102 1.453.723 2.481-.363.987-.939 1.196-4.11 1.492-1.642.153-2.531.391-2.436.652.082.226 3.79 11.385 8.238 24.797l8.09 24.386 3.47-11.525c1.91-6.338 3.725-12.734 4.034-14.212 1.368-6.54.234-11.43-4.533-19.545-2.675-4.553-3.188-6.124-3.013-9.233.122-2.159.339-2.885 1.25-4.178 1.436-2.038 2.684-2.938 4.835-3.487l1.752-.446-3.287-2.477c-5.236-3.946-11.663-6.854-18.35-8.302-3.737-.81-12.36-1.015-16.152-.384Zm65.536 25.017c0 .84.148.932 1.497.932 1.647 0 3.842.793 4.935 1.785 1.459 1.322 2.936 5.265 9.008 24.044 4.744 14.669 6.374 19.28 6.79 19.199.366-.072 2.336-5.499 5.958-16.416 2.975-8.97 5.495-16.306 5.598-16.301.104.005 2.558 7.344 5.453 16.31 3.534 10.944 5.443 16.338 5.81 16.414.416.085 2.047-4.407 6.769-18.64 3.422-10.314 6.54-19.508 6.928-20.43 1.753-4.165 4.061-5.965 7.651-5.965 1.806 0 1.925-.058 1.925-.932v-.932h-19.308v.932c0 .854.137.932 1.646.932 1.883 0 3.166.412 4.051 1.3 1.28 1.285.799 3.598-3.295 15.863-2.15 6.442-4.032 11.836-4.181 11.986-.15.15-2.576-6.777-5.391-15.393-5.095-15.596-5.122-15.666-6.093-15.55-.939.112-1.17.701-6.152 15.713-2.846 8.578-5.298 15.456-5.448 15.285-.15-.172-1.914-5.346-3.921-11.497-4.183-12.825-4.589-15.069-2.993-16.565.741-.696 1.489-.947 3.191-1.07 2.048-.15 2.222-.232 2.222-1.049v-.887h-22.65v.932Zm186.399-.051c0 .813.181.895 2.355 1.07 4.114.332 5.224 1.744 5.87 7.465.506 4.484.194 27.516-.399 29.436-.887 2.875-3.198 4.392-6.69 4.392-.964 0-1.136.14-1.136.932v.932h23.765v-.88c0-.792-.204-.901-2.031-1.09-2.351-.244-3.936-1.07-4.769-2.486-.868-1.475-1.363-5.212-1.366-10.308l-.003-4.51 5.105-.22c9.143-.394 13.483-2.374 16.268-7.42.98-1.777 1.091-2.318 1.091-5.333 0-2.923-.134-3.63-1.044-5.489-1.681-3.437-5.305-6-9.835-6.957-1.224-.258-6.73-.415-14.574-.415h-12.607v.88ZM94.671 36.97c-.068 5.45-.653 8.225-3.445 16.353-1.198 3.485-4.798 13.942-8.001 23.238-3.203 9.296-5.754 16.971-5.669 17.057.39.39 5.985-4.012 9.018-7.096C95.293 77.66 99.74 66.702 99.74 54.077c0-7.258-1.19-13.005-3.982-19.23l-1.032-2.3-.055 4.424Zm-83.987.589c-3.668 9.27-3.96 20.786-.783 30.862C11.089 72.19 14.057 78 16.483 81.31c2.908 3.966 7.319 8.267 11.222 10.942 3.104 2.126 5.57 3.56 5.57 3.238 0-.222-21.579-59.661-21.708-59.795-.057-.059-.454.78-.883 1.864Zm313.983-.894c4.768 2.512 5.999 10.835 2.206 14.918-1.73 1.862-3.484 2.421-8.151 2.598l-4.363.166V35.537l4.363.148c3.612.122 4.635.291 5.945.981Zm-132.656 4.778c-8.162 1.261-15.192 7.06-17.089 14.097-1.647 6.108.345 12.732 5.198 17.29 4.112 3.862 9.144 5.789 15.047 5.762 5.978-.028 10.774-1.957 14.968-6.023 10.046-9.736 5.898-25.352-7.976-30.028-2.787-.939-7.721-1.473-10.148-1.098Zm233.791.158c-2.481.5-4.663 1.713-6.308 3.505-1.732 1.887-2.452 4.092-2.156 6.607.503 4.286 2.89 6.658 10.595 10.533 7.599 3.82 9.672 5.78 9.201 8.695-.613 3.789-4.774 5.496-9.768 4.007-3.813-1.137-6.618-4.18-7.82-8.484-.51-1.827-.727-2.144-1.466-2.144h-.868V78.86l.836-.009c.643-.007 1.023-.438 1.65-1.87l.814-1.86 1.746 1.112c4.071 2.592 9.019 3.148 13.323 1.498 5.945-2.28 8.837-8.845 6.19-14.054-1.318-2.593-3.782-4.424-10.214-7.589-6.527-3.211-8.305-4.596-8.62-6.71-.25-1.67.802-3.36 2.632-4.232 2.032-.968 5.923-.694 7.758.545 1.75 1.181 3.378 3.626 3.977 5.974.424 1.662.575 1.845 1.515 1.845h1.044V41.208h-.924c-.704 0-1.052.31-1.466 1.305-.519 1.245-1.407 1.7-1.866.956-.371-.603-4.011-1.784-6.141-1.994-1.123-.11-2.772-.053-3.664.127Zm31.823.115c-6.144 1.348-9.399 6.58-7.558 12.145 1.071 3.238 3.251 5.038 10.322 8.522 4.813 2.37 6.391 3.337 7.421 4.546 3.641 4.27.266 9.095-5.919 8.46-5.035-.519-9.044-4.105-10.198-9.124-.382-1.66-.574-1.945-1.312-1.945h-.864V78.86h.888c.647 0 .954-.264 1.131-.97.133-.535.508-1.379.833-1.877.519-.794.663-.84 1.19-.376 1.13.997 4.313 2.39 6.492 2.842 5.071 1.052 11.061-1.33 13.392-5.324 2.485-4.257 1.978-8.597-1.4-11.989-1.524-1.53-3.079-2.496-7.383-4.585-7.967-3.867-9.566-5.165-9.571-7.774-.005-2.438 2.441-4.244 5.746-4.244 4.455 0 7.401 2.491 8.708 7.365.354 1.317.577 1.582 1.339 1.582h.914v-6.151c0-6.131-.003-6.151-.836-6.148-.624.004-.996.389-1.472 1.526l-.637 1.523-1.102-.789c-2.482-1.774-6.702-2.505-10.124-1.754Zm-239.808 1.66c0 .843.678 1.185 2.351 1.187 1.813.002 3.48 1.217 3.937 2.869.235.85.392 5.927.394 12.687.001 9.397-.095 11.513-.584 12.74-.688 1.725-2.278 2.645-4.576 2.645-1.376 0-1.522.09-1.522.932v.932h20.422v-.932c0-.852-.14-.932-1.616-.932-1.066 0-2.045-.29-2.877-.85-1.623-1.094-2.121-2.94-2.161-8.004l-.029-3.821h1.059c.935 0 1.738.863 6.777 7.279l5.717 7.279 18.008-.123c19.777-.134 19.889-.146 24.784-2.536 7.346-3.589 10.701-12.443 7.861-20.747-1.705-4.984-5.863-8.563-12.057-10.377-1.839-.538-4.27-.673-14.554-.807-12.275-.159-12.346-.156-12.346.609 0 .794.31.924 3.109 1.302 1.75.237 2.651 1.002 3.282 2.788.699 1.976.678 23.154-.024 25.147-.73 2.073-2.223 2.858-5.439 2.859-4.627.002-8.072-2.306-15.058-10.086l-2.604-2.9 1.962-.574c5.845-1.71 8.937-6.311 7.706-11.464-.632-2.644-3.373-5.474-6.487-6.695-2.136-.838-2.706-.88-13.831-1.008-11.339-.13-11.604-.117-11.604.6Zm121.791.254c0 .863.13.932 1.764.933 2.331.002 3.955 1.013 4.594 2.86.367 1.06.496 4.254.503 12.423.007 9.706-.07 11.202-.659 12.735-.773 2.01-2.235 2.923-4.68 2.923-1.376 0-1.522.09-1.522.932v.932h20.793v-.932c0-.84-.147-.932-1.497-.932-.823 0-2.082-.246-2.798-.546-1.839-.772-2.383-2.35-2.651-7.692l-.222-4.437h1.103c.99 0 1.695.749 6.834 7.251l5.729 7.252 21.414.018 21.414.018.201-2.33c.624-7.248.622-7.363-.13-7.363-.53 0-.845.494-1.286 2.018-.676 2.333-2.106 3.762-4.213 4.212-.761.162-3.32.294-5.689.294-6.778 0-7.251-.533-7.636-8.596l-.245-5.123 3.157.197c4.659.292 5.645.99 6.056 4.293.199 1.602.374 1.96.959 1.96.685 0 .716-.346.716-7.83 0-7.45-.034-7.828-.707-7.828-.569 0-.759.37-.967 1.888-.359 2.618-1.334 3.617-4.003 4.102-1.182.215-2.77.34-3.528.276l-1.377-.115-.102-5.871-.103-5.872 5.115.003c2.814 0 5.771.184 6.571.407 2.017.563 3.351 2.035 3.942 4.352.388 1.517.659 1.949 1.226 1.949.688 0 .715-.19.487-3.413-.133-1.877-.241-4.057-.241-4.846v-1.434H377.111v.932c0 .857.134.932 1.689.932.929 0 2.195.263 2.814.584 1.958 1.017 2.243 2.374 2.452 11.713.197 8.754-.228 15.378-1.073 16.737-.785 1.261-2.773 2.016-4.796 1.821-3.327-.321-5.675-1.885-11.019-7.339-2.706-2.761-4.92-5.144-4.92-5.295 0-.15.908-.54 2.018-.863 2.419-.706 4.796-2.447 6.327-4.633 1.016-1.451 1.124-1.881 1.124-4.49 0-2.561-.127-3.09-1.128-4.721-.662-1.078-1.878-2.33-2.944-3.033-3.07-2.023-5.464-2.345-17.445-2.345h-10.602v.932Zm-139.289 1.693c4.669 2.017 7.844 7.845 7.844 14.397 0 7.008-2.647 12.198-7.502 14.714-1.988 1.03-6.916 1.393-9.402.694-7.708-2.166-11.517-12.957-7.952-22.524 2.083-5.59 6.759-8.637 12.663-8.252 1.377.09 3.305.52 4.349.971Zm39.435 1.205c3.663 2.478 4.294 8.207 1.241 11.272-1.527 1.533-3.205 2.042-6.747 2.044l-2.692.002V45.681h3.472c2.998 0 3.644.116 4.726.848Zm41.237-.21c1.459.467 2.547 1.19 4.067 2.706 2.927 2.917 3.499 4.729 3.478 11.009-.014 4.186-.134 5.148-.889 7.061-1.158 2.941-3.662 5.46-6.357 6.393-2.688.933-8.572 1.002-9.46.112-1.083-1.086-1.269-3.364-1.277-15.71l-.009-12.209h4.227c2.965 0 4.823.19 6.22.638Zm79.904-.13c4.647 1.95 5.207 9.598.91 12.452-1.284.853-1.841.967-4.861.992l-3.412.028-.101-6.99-.101-6.99h3.176c1.843 0 3.686.214 4.389.509ZM53.778 60.853c-9.115 26.514-12.7 37.245-12.562 37.605.23.602 5.916 1.637 10.438 1.899 4.305.25 9.095-.264 13.778-1.478 2.669-.692 3.282-.98 3.192-1.5-.12-.691-13.772-38.359-13.978-38.566-.069-.068-.46.85-.868 2.04Z" clip-rule="evenodd"/></svg>